<svg width="194" height="60" viewBox="0 0 194 60" fill="none" xmlns="http://www.w3.org/2000/svg">
<path d="M15.9678 31.032H7.58376L6.23976 35H0.511756L8.63976 12.536H14.9758L23.1038 35H17.3118L15.9678 31.032ZM14.5598 26.808L11.7758 18.584L9.02376 26.808H14.5598ZM43.9775 23.48C45.2788 23.7573 46.3242 24.408 47.1135 25.432C47.9028 26.4347 48.2975 27.5867 48.2975 28.888C48.2975 30.7653 47.6362 32.2587 46.3135 33.368C45.0122 34.456 43.1882 35 40.8415 35H30.3775V12.536H40.4895C42.7722 12.536 44.5535 13.0587 45.8335 14.104C47.1348 15.1493 47.7855 16.568 47.7855 18.36C47.7855 19.6827 47.4335 20.7813 46.7295 21.656C46.0468 22.5307 45.1295 23.1387 43.9775 23.48ZM35.8495 21.624H39.4335C40.3295 21.624 41.0122 21.432 41.4815 21.048C41.9722 20.6427 42.2175 20.056 42.2175 19.288C42.2175 18.52 41.9722 17.9333 41.4815 17.528C41.0122 17.1227 40.3295 16.92 39.4335 16.92H35.8495V21.624ZM39.8815 30.584C40.7988 30.584 41.5028 30.3813 41.9935 29.976C42.5055 29.5493 42.7615 28.9413 42.7615 28.152C42.7615 27.3627 42.4948 26.744 41.9615 26.296C41.4495 25.848 40.7348 25.624 39.8175 25.624H35.8495V30.584H39.8815ZM66.8953 35.224C64.7833 35.224 62.8419 34.7333 61.0713 33.752C59.3219 32.7707 57.9246 31.4053 56.8793 29.656C55.8553 27.8853 55.3433 25.9013 55.3433 23.704C55.3433 21.5067 55.8553 19.5333 56.8793 17.784C57.9246 16.0347 59.3219 14.6693 61.0713 13.688C62.8419 12.7067 64.7833 12.216 66.8953 12.216C69.0073 12.216 70.9379 12.7067 72.6873 13.688C74.4579 14.6693 75.8446 16.0347 76.8473 17.784C77.8713 19.5333 78.3833 21.5067 78.3833 23.704C78.3833 25.9013 77.8713 27.8853 76.8473 29.656C75.8233 31.4053 74.4366 32.7707 72.6873 33.752C70.9379 34.7333 69.0073 35.224 66.8953 35.224ZM66.8953 30.232C68.6873 30.232 70.1166 29.6347 71.1833 28.44C72.2713 27.2453 72.8153 25.6667 72.8153 23.704C72.8153 21.72 72.2713 20.1413 71.1833 18.968C70.1166 17.7733 68.6873 17.176 66.8953 17.176C65.0819 17.176 63.6313 17.7627 62.5433 18.936C61.4766 20.1093 60.9433 21.6987 60.9433 23.704C60.9433 25.688 61.4766 27.2773 62.5433 28.472C63.6313 29.6453 65.0819 30.232 66.8953 30.232ZM91.6035 12.536V25.976C91.6035 27.32 91.9342 28.3547 92.5955 29.08C93.2568 29.8053 94.2275 30.168 95.5075 30.168C96.7875 30.168 97.7688 29.8053 98.4515 29.08C99.1342 28.3547 99.4755 27.32 99.4755 25.976V12.536H104.948V25.944C104.948 27.9493 104.521 29.6453 103.668 31.032C102.814 32.4187 101.662 33.464 100.212 34.168C98.7822 34.872 97.1822 35.224 95.4115 35.224C93.6408 35.224 92.0515 34.8827 90.6435 34.2C89.2568 33.496 88.1582 32.4507 87.3475 31.064C86.5368 29.656 86.1315 27.9493 86.1315 25.944V12.536H91.6035ZM129.75 12.536V16.92H123.798V35H118.326V16.92H112.374V12.536H129.75ZM154.254 12.536V25.976C154.254 27.32 154.584 28.3547 155.246 29.08C155.907 29.8053 156.878 30.168 158.158 30.168C159.438 30.168 160.419 29.8053 161.102 29.08C161.784 28.3547 162.126 27.32 162.126 25.976V12.536H167.598V25.944C167.598 27.9493 167.171 29.6453 166.318 31.032C165.464 32.4187 164.312 33.464 162.862 34.168C161.432 34.872 159.832 35.224 158.062 35.224C156.291 35.224 154.702 34.8827 153.294 34.2C151.907 33.496 150.808 32.4507 149.998 31.064C149.187 29.656 148.782 27.9493 148.782 25.944V12.536H154.254ZM184.368 35.224C182.725 35.224 181.253 34.9573 179.952 34.424C178.651 33.8907 177.605 33.1013 176.816 32.056C176.048 31.0107 175.643 29.752 175.6 28.28H181.424C181.509 29.112 181.797 29.752 182.288 30.2C182.779 30.6267 183.419 30.84 184.208 30.84C185.019 30.84 185.659 30.6587 186.128 30.296C186.597 29.912 186.832 29.3893 186.832 28.728C186.832 28.1733 186.64 27.7147 186.256 27.352C185.893 26.9893 185.435 26.6907 184.88 26.456C184.347 26.2213 183.579 25.9547 182.576 25.656C181.125 25.208 179.941 24.76 179.024 24.312C178.107 23.864 177.317 23.2027 176.656 22.328C175.995 21.4533 175.664 20.312 175.664 18.904C175.664 16.8133 176.421 15.1813 177.936 14.008C179.451 12.8133 181.424 12.216 183.856 12.216C186.331 12.216 188.325 12.8133 189.84 14.008C191.355 15.1813 192.165 16.824 192.272 18.936H186.352C186.309 18.2107 186.043 17.6453 185.552 17.24C185.061 16.8133 184.432 16.6 183.664 16.6C183.003 16.6 182.469 16.7813 182.064 17.144C181.659 17.4853 181.456 17.9867 181.456 18.648C181.456 19.3733 181.797 19.9387 182.48 20.344C183.163 20.7493 184.229 21.1867 185.68 21.656C187.131 22.1467 188.304 22.616 189.2 23.064C190.117 23.512 190.907 24.1627 191.568 25.016C192.229 25.8693 192.56 26.968 192.56 28.312C192.56 29.592 192.229 30.7547 191.568 31.8C190.928 32.8453 189.989 33.6773 188.752 34.296C187.515 34.9147 186.053 35.224 184.368 35.224Z" fill="white"/>
<line x1="0.991943" y1="56.7563" x2="194" y2="56.7563" stroke="#FFCE31" stroke-width="5"/>
</svg>
