<svg width="258" height="88" viewBox="0 0 258 88" fill="none" xmlns="http://www.w3.org/2000/svg">
<g filter="url(#filter0_d_771_355)">
<rect x="4" width="250" height="80" rx="10" fill="#C81243"/>
</g>
<path d="M99.89 24.09C99.542 23.358 99.038 22.794 98.378 22.398C97.718 21.99 96.95 21.786 96.074 21.786C95.198 21.786 94.406 21.99 93.698 22.398C93.002 22.794 92.45 23.37 92.042 24.126C91.646 24.87 91.448 25.734 91.448 26.718C91.448 27.702 91.646 28.566 92.042 29.31C92.45 30.054 93.002 30.63 93.698 31.038C94.406 31.434 95.198 31.632 96.074 31.632C97.298 31.632 98.306 31.266 99.098 30.534C99.89 29.802 100.352 28.812 100.484 27.564H95.48V26.232H102.23V27.492C102.134 28.524 101.81 29.472 101.258 30.336C100.706 31.188 99.98 31.866 99.08 32.37C98.18 32.862 97.178 33.108 96.074 33.108C94.91 33.108 93.848 32.838 92.888 32.298C91.928 31.746 91.166 30.984 90.602 30.012C90.05 29.04 89.774 27.942 89.774 26.718C89.774 25.494 90.05 24.396 90.602 23.424C91.166 22.44 91.928 21.678 92.888 21.138C93.848 20.586 94.91 20.31 96.074 20.31C97.406 20.31 98.582 20.64 99.602 21.3C100.634 21.96 101.384 22.89 101.852 24.09H99.89ZM113.396 27.69C113.396 28.002 113.378 28.332 113.342 28.68H105.458C105.518 29.652 105.848 30.414 106.448 30.966C107.06 31.506 107.798 31.776 108.662 31.776C109.37 31.776 109.958 31.614 110.426 31.29C110.906 30.954 111.242 30.51 111.434 29.958H113.198C112.934 30.906 112.406 31.68 111.614 32.28C110.822 32.868 109.838 33.162 108.662 33.162C107.726 33.162 106.886 32.952 106.142 32.532C105.41 32.112 104.834 31.518 104.414 30.75C103.994 29.97 103.784 29.07 103.784 28.05C103.784 27.03 103.988 26.136 104.396 25.368C104.804 24.6 105.374 24.012 106.106 23.604C106.85 23.184 107.702 22.974 108.662 22.974C109.598 22.974 110.426 23.178 111.146 23.586C111.866 23.994 112.418 24.558 112.802 25.278C113.198 25.986 113.396 26.79 113.396 27.69ZM111.704 27.348C111.704 26.724 111.566 26.19 111.29 25.746C111.014 25.29 110.636 24.948 110.156 24.72C109.688 24.48 109.166 24.36 108.59 24.36C107.762 24.36 107.054 24.624 106.466 25.152C105.89 25.68 105.56 26.412 105.476 27.348H111.704ZM117.556 24.486V30.3C117.556 30.78 117.658 31.122 117.862 31.326C118.066 31.518 118.42 31.614 118.924 31.614H120.13V33H118.654C117.742 33 117.058 32.79 116.602 32.37C116.146 31.95 115.918 31.26 115.918 30.3V24.486H114.64V23.136H115.918V20.652H117.556V23.136H120.13V24.486H117.556ZM127.759 21.534C127.447 21.534 127.183 21.426 126.967 21.21C126.751 20.994 126.643 20.73 126.643 20.418C126.643 20.106 126.751 19.842 126.967 19.626C127.183 19.41 127.447 19.302 127.759 19.302C128.059 19.302 128.311 19.41 128.515 19.626C128.731 19.842 128.839 20.106 128.839 20.418C128.839 20.73 128.731 20.994 128.515 21.21C128.311 21.426 128.059 21.534 127.759 21.534ZM128.551 23.136V33H126.913V23.136H128.551ZM133.341 24.486V30.3C133.341 30.78 133.443 31.122 133.647 31.326C133.851 31.518 134.205 31.614 134.709 31.614H135.915V33H134.439C133.527 33 132.843 32.79 132.387 32.37C131.931 31.95 131.703 31.26 131.703 30.3V24.486H130.425V23.136H131.703V20.652H133.341V23.136H135.915V24.486H133.341ZM147.001 33.162C146.077 33.162 145.237 32.952 144.481 32.532C143.737 32.112 143.149 31.518 142.717 30.75C142.297 29.97 142.087 29.07 142.087 28.05C142.087 27.042 142.303 26.154 142.735 25.386C143.179 24.606 143.779 24.012 144.535 23.604C145.291 23.184 146.137 22.974 147.073 22.974C148.009 22.974 148.855 23.184 149.611 23.604C150.367 24.012 150.961 24.6 151.393 25.368C151.837 26.136 152.059 27.03 152.059 28.05C152.059 29.07 151.831 29.97 151.375 30.75C150.931 31.518 150.325 32.112 149.557 32.532C148.789 32.952 147.937 33.162 147.001 33.162ZM147.001 31.722C147.589 31.722 148.141 31.584 148.657 31.308C149.173 31.032 149.587 30.618 149.899 30.066C150.223 29.514 150.385 28.842 150.385 28.05C150.385 27.258 150.229 26.586 149.917 26.034C149.605 25.482 149.197 25.074 148.693 24.81C148.189 24.534 147.643 24.396 147.055 24.396C146.455 24.396 145.903 24.534 145.399 24.81C144.907 25.074 144.511 25.482 144.211 26.034C143.911 26.586 143.761 27.258 143.761 28.05C143.761 28.854 143.905 29.532 144.193 30.084C144.493 30.636 144.889 31.05 145.381 31.326C145.873 31.59 146.413 31.722 147.001 31.722ZM159.018 22.956C160.218 22.956 161.19 23.322 161.934 24.054C162.678 24.774 163.05 25.818 163.05 27.186V33H161.43V27.42C161.43 26.436 161.184 25.686 160.692 25.17C160.2 24.642 159.528 24.378 158.676 24.378C157.812 24.378 157.122 24.648 156.606 25.188C156.102 25.728 155.85 26.514 155.85 27.546V33H154.212V23.136H155.85V24.54C156.174 24.036 156.612 23.646 157.164 23.37C157.728 23.094 158.346 22.956 159.018 22.956Z" fill="white"/>
<path d="M100.928 52.808H94.256L93.152 56H89.624L95.648 39.224H99.56L105.584 56H102.032L100.928 52.808ZM100.016 50.12L97.592 43.112L95.168 50.12H100.016ZM111.196 44.624C111.628 44.016 112.22 43.512 112.972 43.112C113.74 42.696 114.612 42.488 115.588 42.488C116.724 42.488 117.748 42.768 118.66 43.328C119.588 43.888 120.316 44.688 120.844 45.728C121.388 46.752 121.66 47.944 121.66 49.304C121.66 50.664 121.388 51.872 120.844 52.928C120.316 53.968 119.588 54.776 118.66 55.352C117.748 55.928 116.724 56.216 115.588 56.216C114.612 56.216 113.748 56.016 112.996 55.616C112.26 55.216 111.66 54.712 111.196 54.104V62.336H107.836V42.704H111.196V44.624ZM118.228 49.304C118.228 48.504 118.06 47.816 117.724 47.24C117.404 46.648 116.972 46.2 116.428 45.896C115.9 45.592 115.324 45.44 114.7 45.44C114.092 45.44 113.516 45.6 112.972 45.92C112.444 46.224 112.012 46.672 111.676 47.264C111.356 47.856 111.196 48.552 111.196 49.352C111.196 50.152 111.356 50.848 111.676 51.44C112.012 52.032 112.444 52.488 112.972 52.808C113.516 53.112 114.092 53.264 114.7 53.264C115.324 53.264 115.9 53.104 116.428 52.784C116.972 52.464 117.404 52.008 117.724 51.416C118.06 50.824 118.228 50.12 118.228 49.304ZM127.461 44.624C127.893 44.016 128.485 43.512 129.237 43.112C130.005 42.696 130.877 42.488 131.853 42.488C132.989 42.488 134.013 42.768 134.925 43.328C135.853 43.888 136.581 44.688 137.109 45.728C137.653 46.752 137.925 47.944 137.925 49.304C137.925 50.664 137.653 51.872 137.109 52.928C136.581 53.968 135.853 54.776 134.925 55.352C134.013 55.928 132.989 56.216 131.853 56.216C130.877 56.216 130.013 56.016 129.261 55.616C128.525 55.216 127.925 54.712 127.461 54.104V62.336H124.101V42.704H127.461V44.624ZM134.493 49.304C134.493 48.504 134.325 47.816 133.989 47.24C133.669 46.648 133.237 46.2 132.693 45.896C132.165 45.592 131.589 45.44 130.965 45.44C130.357 45.44 129.781 45.6 129.237 45.92C128.709 46.224 128.277 46.672 127.941 47.264C127.621 47.856 127.461 48.552 127.461 49.352C127.461 50.152 127.621 50.848 127.941 51.44C128.277 52.032 128.709 52.488 129.237 52.808C129.781 53.112 130.357 53.264 130.965 53.264C131.589 53.264 132.165 53.104 132.693 52.784C133.237 52.464 133.669 52.008 133.989 51.416C134.325 50.824 134.493 50.12 134.493 49.304ZM143.727 38.24V56H140.367V38.24H143.727ZM159.407 49.064C159.407 49.544 159.375 49.976 159.311 50.36H149.591C149.671 51.32 150.007 52.072 150.599 52.616C151.191 53.16 151.919 53.432 152.783 53.432C154.031 53.432 154.919 52.896 155.447 51.824H159.071C158.687 53.104 157.951 54.16 156.863 54.992C155.775 55.808 154.439 56.216 152.855 56.216C151.575 56.216 150.423 55.936 149.399 55.376C148.391 54.8 147.599 53.992 147.023 52.952C146.463 51.912 146.183 50.712 146.183 49.352C146.183 47.976 146.463 46.768 147.023 45.728C147.583 44.688 148.367 43.888 149.375 43.328C150.383 42.768 151.543 42.488 152.855 42.488C154.119 42.488 155.247 42.76 156.239 43.304C157.247 43.848 158.023 44.624 158.567 45.632C159.127 46.624 159.407 47.768 159.407 49.064ZM155.927 48.104C155.911 47.24 155.599 46.552 154.991 46.04C154.383 45.512 153.639 45.248 152.759 45.248C151.927 45.248 151.223 45.504 150.647 46.016C150.087 46.512 149.743 47.208 149.615 48.104H155.927ZM173.362 56.168C172.194 56.168 171.138 55.968 170.194 55.568C169.266 55.168 168.53 54.592 167.986 53.84C167.442 53.088 167.162 52.2 167.146 51.176H170.746C170.794 51.864 171.034 52.408 171.466 52.808C171.914 53.208 172.522 53.408 173.29 53.408C174.074 53.408 174.69 53.224 175.138 52.856C175.586 52.472 175.81 51.976 175.81 51.368C175.81 50.872 175.658 50.464 175.354 50.144C175.05 49.824 174.666 49.576 174.202 49.4C173.754 49.208 173.13 49 172.33 48.776C171.242 48.456 170.354 48.144 169.666 47.84C168.994 47.52 168.41 47.048 167.914 46.424C167.434 45.784 167.194 44.936 167.194 43.88C167.194 42.888 167.442 42.024 167.938 41.288C168.434 40.552 169.13 39.992 170.026 39.608C170.922 39.208 171.946 39.008 173.098 39.008C174.826 39.008 176.226 39.432 177.298 40.28C178.386 41.112 178.986 42.28 179.098 43.784H175.402C175.37 43.208 175.122 42.736 174.658 42.368C174.21 41.984 173.61 41.792 172.858 41.792C172.202 41.792 171.674 41.96 171.274 42.296C170.89 42.632 170.698 43.12 170.698 43.76C170.698 44.208 170.842 44.584 171.13 44.888C171.434 45.176 171.802 45.416 172.234 45.608C172.682 45.784 173.306 45.992 174.106 46.232C175.194 46.552 176.082 46.872 176.77 47.192C177.458 47.512 178.05 47.992 178.546 48.632C179.042 49.272 179.29 50.112 179.29 51.152C179.29 52.048 179.058 52.88 178.594 53.648C178.13 54.416 177.45 55.032 176.554 55.496C175.658 55.944 174.594 56.168 173.362 56.168ZM186.115 45.464V51.896C186.115 52.344 186.219 52.672 186.427 52.88C186.651 53.072 187.019 53.168 187.531 53.168H189.091V56H186.979C184.147 56 182.731 54.624 182.731 51.872V45.464H181.147V42.704H182.731V39.416H186.115V42.704H189.091V45.464H186.115ZM197.412 56.216C196.132 56.216 194.98 55.936 193.956 55.376C192.932 54.8 192.124 53.992 191.532 52.952C190.956 51.912 190.668 50.712 190.668 49.352C190.668 47.992 190.964 46.792 191.556 45.752C192.164 44.712 192.988 43.912 194.028 43.352C195.068 42.776 196.228 42.488 197.508 42.488C198.788 42.488 199.948 42.776 200.988 43.352C202.028 43.912 202.844 44.712 203.436 45.752C204.044 46.792 204.348 47.992 204.348 49.352C204.348 50.712 204.036 51.912 203.412 52.952C202.804 53.992 201.972 54.8 200.916 55.376C199.876 55.936 198.708 56.216 197.412 56.216ZM197.412 53.288C198.02 53.288 198.588 53.144 199.116 52.856C199.66 52.552 200.092 52.104 200.412 51.512C200.732 50.92 200.892 50.2 200.892 49.352C200.892 48.088 200.556 47.12 199.884 46.448C199.228 45.76 198.42 45.416 197.46 45.416C196.5 45.416 195.692 45.76 195.036 46.448C194.396 47.12 194.076 48.088 194.076 49.352C194.076 50.616 194.388 51.592 195.012 52.28C195.652 52.952 196.452 53.288 197.412 53.288ZM210.172 44.768C210.604 44.064 211.164 43.512 211.852 43.112C212.556 42.712 213.356 42.512 214.252 42.512V46.04H213.364C212.308 46.04 211.508 46.288 210.964 46.784C210.436 47.28 210.172 48.144 210.172 49.376V56H206.812V42.704H210.172V44.768ZM228.875 49.064C228.875 49.544 228.843 49.976 228.779 50.36H219.059C219.139 51.32 219.475 52.072 220.067 52.616C220.659 53.16 221.387 53.432 222.251 53.432C223.499 53.432 224.387 52.896 224.915 51.824H228.539C228.155 53.104 227.419 54.16 226.331 54.992C225.243 55.808 223.907 56.216 222.323 56.216C221.043 56.216 219.891 55.936 218.867 55.376C217.859 54.8 217.067 53.992 216.491 52.952C215.931 51.912 215.651 50.712 215.651 49.352C215.651 47.976 215.931 46.768 216.491 45.728C217.051 44.688 217.835 43.888 218.843 43.328C219.851 42.768 221.011 42.488 222.323 42.488C223.587 42.488 224.715 42.76 225.707 43.304C226.715 43.848 227.491 44.624 228.035 45.632C228.595 46.624 228.875 47.768 228.875 49.064ZM225.395 48.104C225.379 47.24 225.067 46.552 224.459 46.04C223.851 45.512 223.107 45.248 222.227 45.248C221.395 45.248 220.691 45.504 220.115 46.016C219.555 46.512 219.211 47.208 219.083 48.104H225.395Z" fill="white"/>
<path d="M59.5208 57.25C57.4792 59.2292 55.25 58.9167 53.1042 57.9792C50.8333 57.0208 48.75 56.9792 46.3542 57.9792C43.3542 59.2708 41.7708 58.8958 39.9792 57.25C29.8125 46.7708 31.3125 30.8125 42.8542 30.2292C45.6667 30.375 47.625 31.7708 49.2708 31.8958C51.7292 31.3958 54.0833 29.9583 56.7083 30.1458C59.8542 30.3958 62.2292 31.6458 63.7917 33.8958C57.2917 37.7917 58.8333 46.3542 64.7917 48.75C63.6042 51.875 62.0625 54.9792 59.5 57.2708L59.5208 57.25ZM49.0625 30.1042C48.75 25.4583 52.5208 21.625 56.8542 21.25C57.4583 26.625 51.9792 30.625 49.0625 30.1042Z" fill="white"/>
<defs>
<filter id="filter0_d_771_355" x="0" y="0" width="258" height="88" filterUnits="userSpaceOnUse" color-interpolation-filters="sRGB">
<feFlood flood-opacity="0" result="BackgroundImageFix"/>
<feColorMatrix in="SourceAlpha" type="matrix" values="0 0 0 0 0 0 0 0 0 0 0 0 0 0 0 0 0 0 127 0" result="hardAlpha"/>
<feOffset dy="4"/>
<feGaussianBlur stdDeviation="2"/>
<feComposite in2="hardAlpha" operator="out"/>
<feColorMatrix type="matrix" values="0 0 0 0 0 0 0 0 0 0 0 0 0 0 0 0 0 0 0.25 0"/>
<feBlend mode="normal" in2="BackgroundImageFix" result="effect1_dropShadow_771_355"/>
<feBlend mode="normal" in="SourceGraphic" in2="effect1_dropShadow_771_355" result="shape"/>
</filter>
</defs>
</svg>
