<svg width="258" height="88" viewBox="0 0 258 88" fill="none" xmlns="http://www.w3.org/2000/svg">
<g filter="url(#filter0_d_771_329)">
<rect x="4" width="250" height="80" rx="10" fill="#FFC107"/>
</g>
<path d="M99.89 24.09C99.542 23.358 99.038 22.794 98.378 22.398C97.718 21.99 96.95 21.786 96.074 21.786C95.198 21.786 94.406 21.99 93.698 22.398C93.002 22.794 92.45 23.37 92.042 24.126C91.646 24.87 91.448 25.734 91.448 26.718C91.448 27.702 91.646 28.566 92.042 29.31C92.45 30.054 93.002 30.63 93.698 31.038C94.406 31.434 95.198 31.632 96.074 31.632C97.298 31.632 98.306 31.266 99.098 30.534C99.89 29.802 100.352 28.812 100.484 27.564H95.48V26.232H102.23V27.492C102.134 28.524 101.81 29.472 101.258 30.336C100.706 31.188 99.98 31.866 99.08 32.37C98.18 32.862 97.178 33.108 96.074 33.108C94.91 33.108 93.848 32.838 92.888 32.298C91.928 31.746 91.166 30.984 90.602 30.012C90.05 29.04 89.774 27.942 89.774 26.718C89.774 25.494 90.05 24.396 90.602 23.424C91.166 22.44 91.928 21.678 92.888 21.138C93.848 20.586 94.91 20.31 96.074 20.31C97.406 20.31 98.582 20.64 99.602 21.3C100.634 21.96 101.384 22.89 101.852 24.09H99.89ZM113.396 27.69C113.396 28.002 113.378 28.332 113.342 28.68H105.458C105.518 29.652 105.848 30.414 106.448 30.966C107.06 31.506 107.798 31.776 108.662 31.776C109.37 31.776 109.958 31.614 110.426 31.29C110.906 30.954 111.242 30.51 111.434 29.958H113.198C112.934 30.906 112.406 31.68 111.614 32.28C110.822 32.868 109.838 33.162 108.662 33.162C107.726 33.162 106.886 32.952 106.142 32.532C105.41 32.112 104.834 31.518 104.414 30.75C103.994 29.97 103.784 29.07 103.784 28.05C103.784 27.03 103.988 26.136 104.396 25.368C104.804 24.6 105.374 24.012 106.106 23.604C106.85 23.184 107.702 22.974 108.662 22.974C109.598 22.974 110.426 23.178 111.146 23.586C111.866 23.994 112.418 24.558 112.802 25.278C113.198 25.986 113.396 26.79 113.396 27.69ZM111.704 27.348C111.704 26.724 111.566 26.19 111.29 25.746C111.014 25.29 110.636 24.948 110.156 24.72C109.688 24.48 109.166 24.36 108.59 24.36C107.762 24.36 107.054 24.624 106.466 25.152C105.89 25.68 105.56 26.412 105.476 27.348H111.704ZM117.556 24.486V30.3C117.556 30.78 117.658 31.122 117.862 31.326C118.066 31.518 118.42 31.614 118.924 31.614H120.13V33H118.654C117.742 33 117.058 32.79 116.602 32.37C116.146 31.95 115.918 31.26 115.918 30.3V24.486H114.64V23.136H115.918V20.652H117.556V23.136H120.13V24.486H117.556ZM127.759 21.534C127.447 21.534 127.183 21.426 126.967 21.21C126.751 20.994 126.643 20.73 126.643 20.418C126.643 20.106 126.751 19.842 126.967 19.626C127.183 19.41 127.447 19.302 127.759 19.302C128.059 19.302 128.311 19.41 128.515 19.626C128.731 19.842 128.839 20.106 128.839 20.418C128.839 20.73 128.731 20.994 128.515 21.21C128.311 21.426 128.059 21.534 127.759 21.534ZM128.551 23.136V33H126.913V23.136H128.551ZM133.341 24.486V30.3C133.341 30.78 133.443 31.122 133.647 31.326C133.851 31.518 134.205 31.614 134.709 31.614H135.915V33H134.439C133.527 33 132.843 32.79 132.387 32.37C131.931 31.95 131.703 31.26 131.703 30.3V24.486H130.425V23.136H131.703V20.652H133.341V23.136H135.915V24.486H133.341ZM147.001 33.162C146.077 33.162 145.237 32.952 144.481 32.532C143.737 32.112 143.149 31.518 142.717 30.75C142.297 29.97 142.087 29.07 142.087 28.05C142.087 27.042 142.303 26.154 142.735 25.386C143.179 24.606 143.779 24.012 144.535 23.604C145.291 23.184 146.137 22.974 147.073 22.974C148.009 22.974 148.855 23.184 149.611 23.604C150.367 24.012 150.961 24.6 151.393 25.368C151.837 26.136 152.059 27.03 152.059 28.05C152.059 29.07 151.831 29.97 151.375 30.75C150.931 31.518 150.325 32.112 149.557 32.532C148.789 32.952 147.937 33.162 147.001 33.162ZM147.001 31.722C147.589 31.722 148.141 31.584 148.657 31.308C149.173 31.032 149.587 30.618 149.899 30.066C150.223 29.514 150.385 28.842 150.385 28.05C150.385 27.258 150.229 26.586 149.917 26.034C149.605 25.482 149.197 25.074 148.693 24.81C148.189 24.534 147.643 24.396 147.055 24.396C146.455 24.396 145.903 24.534 145.399 24.81C144.907 25.074 144.511 25.482 144.211 26.034C143.911 26.586 143.761 27.258 143.761 28.05C143.761 28.854 143.905 29.532 144.193 30.084C144.493 30.636 144.889 31.05 145.381 31.326C145.873 31.59 146.413 31.722 147.001 31.722ZM159.018 22.956C160.218 22.956 161.19 23.322 161.934 24.054C162.678 24.774 163.05 25.818 163.05 27.186V33H161.43V27.42C161.43 26.436 161.184 25.686 160.692 25.17C160.2 24.642 159.528 24.378 158.676 24.378C157.812 24.378 157.122 24.648 156.606 25.188C156.102 25.728 155.85 26.514 155.85 27.546V33H154.212V23.136H155.85V24.54C156.174 24.036 156.612 23.646 157.164 23.37C157.728 23.094 158.346 22.956 159.018 22.956Z" fill="black"/>
<path d="M100.928 52.808H94.256L93.152 56H89.624L95.648 39.224H99.56L105.584 56H102.032L100.928 52.808ZM100.016 50.12L97.592 43.112L95.168 50.12H100.016ZM111.196 44.624C111.628 44.016 112.22 43.512 112.972 43.112C113.74 42.696 114.612 42.488 115.588 42.488C116.724 42.488 117.748 42.768 118.66 43.328C119.588 43.888 120.316 44.688 120.844 45.728C121.388 46.752 121.66 47.944 121.66 49.304C121.66 50.664 121.388 51.872 120.844 52.928C120.316 53.968 119.588 54.776 118.66 55.352C117.748 55.928 116.724 56.216 115.588 56.216C114.612 56.216 113.748 56.016 112.996 55.616C112.26 55.216 111.66 54.712 111.196 54.104V62.336H107.836V42.704H111.196V44.624ZM118.228 49.304C118.228 48.504 118.06 47.816 117.724 47.24C117.404 46.648 116.972 46.2 116.428 45.896C115.9 45.592 115.324 45.44 114.7 45.44C114.092 45.44 113.516 45.6 112.972 45.92C112.444 46.224 112.012 46.672 111.676 47.264C111.356 47.856 111.196 48.552 111.196 49.352C111.196 50.152 111.356 50.848 111.676 51.44C112.012 52.032 112.444 52.488 112.972 52.808C113.516 53.112 114.092 53.264 114.7 53.264C115.324 53.264 115.9 53.104 116.428 52.784C116.972 52.464 117.404 52.008 117.724 51.416C118.06 50.824 118.228 50.12 118.228 49.304ZM127.461 44.624C127.893 44.016 128.485 43.512 129.237 43.112C130.005 42.696 130.877 42.488 131.853 42.488C132.989 42.488 134.013 42.768 134.925 43.328C135.853 43.888 136.581 44.688 137.109 45.728C137.653 46.752 137.925 47.944 137.925 49.304C137.925 50.664 137.653 51.872 137.109 52.928C136.581 53.968 135.853 54.776 134.925 55.352C134.013 55.928 132.989 56.216 131.853 56.216C130.877 56.216 130.013 56.016 129.261 55.616C128.525 55.216 127.925 54.712 127.461 54.104V62.336H124.101V42.704H127.461V44.624ZM134.493 49.304C134.493 48.504 134.325 47.816 133.989 47.24C133.669 46.648 133.237 46.2 132.693 45.896C132.165 45.592 131.589 45.44 130.965 45.44C130.357 45.44 129.781 45.6 129.237 45.92C128.709 46.224 128.277 46.672 127.941 47.264C127.621 47.856 127.461 48.552 127.461 49.352C127.461 50.152 127.621 50.848 127.941 51.44C128.277 52.032 128.709 52.488 129.237 52.808C129.781 53.112 130.357 53.264 130.965 53.264C131.589 53.264 132.165 53.104 132.693 52.784C133.237 52.464 133.669 52.008 133.989 51.416C134.325 50.824 134.493 50.12 134.493 49.304ZM151.87 56.168C150.702 56.168 149.646 55.968 148.702 55.568C147.774 55.168 147.038 54.592 146.494 53.84C145.95 53.088 145.67 52.2 145.654 51.176H149.254C149.302 51.864 149.542 52.408 149.974 52.808C150.422 53.208 151.03 53.408 151.798 53.408C152.582 53.408 153.198 53.224 153.646 52.856C154.094 52.472 154.318 51.976 154.318 51.368C154.318 50.872 154.166 50.464 153.862 50.144C153.558 49.824 153.174 49.576 152.71 49.4C152.262 49.208 151.638 49 150.838 48.776C149.75 48.456 148.862 48.144 148.174 47.84C147.502 47.52 146.918 47.048 146.422 46.424C145.942 45.784 145.702 44.936 145.702 43.88C145.702 42.888 145.95 42.024 146.446 41.288C146.942 40.552 147.638 39.992 148.534 39.608C149.43 39.208 150.454 39.008 151.606 39.008C153.334 39.008 154.734 39.432 155.806 40.28C156.894 41.112 157.494 42.28 157.606 43.784H153.91C153.878 43.208 153.63 42.736 153.166 42.368C152.718 41.984 152.118 41.792 151.366 41.792C150.71 41.792 150.182 41.96 149.782 42.296C149.398 42.632 149.206 43.12 149.206 43.76C149.206 44.208 149.35 44.584 149.638 44.888C149.942 45.176 150.31 45.416 150.742 45.608C151.19 45.784 151.814 45.992 152.614 46.232C153.702 46.552 154.59 46.872 155.278 47.192C155.966 47.512 156.558 47.992 157.054 48.632C157.55 49.272 157.798 50.112 157.798 51.152C157.798 52.048 157.566 52.88 157.102 53.648C156.638 54.416 155.958 55.032 155.062 55.496C154.166 55.944 153.102 56.168 151.87 56.168ZM164.623 45.464V51.896C164.623 52.344 164.727 52.672 164.935 52.88C165.159 53.072 165.527 53.168 166.039 53.168H167.599V56H165.487C162.655 56 161.239 54.624 161.239 51.872V45.464H159.655V42.704H161.239V39.416H164.623V42.704H167.599V45.464H164.623ZM175.919 56.216C174.639 56.216 173.487 55.936 172.463 55.376C171.439 54.8 170.631 53.992 170.039 52.952C169.463 51.912 169.175 50.712 169.175 49.352C169.175 47.992 169.471 46.792 170.063 45.752C170.671 44.712 171.495 43.912 172.535 43.352C173.575 42.776 174.735 42.488 176.015 42.488C177.295 42.488 178.455 42.776 179.495 43.352C180.535 43.912 181.351 44.712 181.943 45.752C182.551 46.792 182.855 47.992 182.855 49.352C182.855 50.712 182.543 51.912 181.919 52.952C181.311 53.992 180.479 54.8 179.423 55.376C178.383 55.936 177.215 56.216 175.919 56.216ZM175.919 53.288C176.527 53.288 177.095 53.144 177.623 52.856C178.167 52.552 178.599 52.104 178.919 51.512C179.239 50.92 179.399 50.2 179.399 49.352C179.399 48.088 179.063 47.12 178.391 46.448C177.735 45.76 176.927 45.416 175.967 45.416C175.007 45.416 174.199 45.76 173.543 46.448C172.903 47.12 172.583 48.088 172.583 49.352C172.583 50.616 172.895 51.592 173.519 52.28C174.159 52.952 174.959 53.288 175.919 53.288ZM188.68 44.768C189.112 44.064 189.672 43.512 190.36 43.112C191.064 42.712 191.864 42.512 192.76 42.512V46.04H191.872C190.816 46.04 190.016 46.288 189.472 46.784C188.944 47.28 188.68 48.144 188.68 49.376V56H185.32V42.704H188.68V44.768ZM207.383 49.064C207.383 49.544 207.351 49.976 207.287 50.36H197.567C197.647 51.32 197.983 52.072 198.575 52.616C199.167 53.16 199.895 53.432 200.759 53.432C202.007 53.432 202.895 52.896 203.423 51.824H207.047C206.663 53.104 205.927 54.16 204.839 54.992C203.751 55.808 202.415 56.216 200.831 56.216C199.551 56.216 198.399 55.936 197.375 55.376C196.367 54.8 195.575 53.992 194.999 52.952C194.439 51.912 194.159 50.712 194.159 49.352C194.159 47.976 194.439 46.768 194.999 45.728C195.559 44.688 196.343 43.888 197.351 43.328C198.359 42.768 199.519 42.488 200.831 42.488C202.095 42.488 203.223 42.76 204.215 43.304C205.223 43.848 205.999 44.624 206.543 45.632C207.103 46.624 207.383 47.768 207.383 49.064ZM203.903 48.104C203.887 47.24 203.575 46.552 202.967 46.04C202.359 45.512 201.615 45.248 200.735 45.248C199.903 45.248 199.199 45.504 198.623 46.016C198.063 46.512 197.719 47.208 197.591 48.104H203.903Z" fill="black"/>
<path d="M59.5208 57.25C57.4792 59.2292 55.25 58.9167 53.1042 57.9792C50.8333 57.0208 48.75 56.9792 46.3542 57.9792C43.3542 59.2708 41.7708 58.8958 39.9792 57.25C29.8125 46.7708 31.3125 30.8125 42.8542 30.2292C45.6667 30.375 47.625 31.7708 49.2708 31.8958C51.7292 31.3958 54.0833 29.9583 56.7083 30.1458C59.8542 30.3958 62.2292 31.6458 63.7917 33.8958C57.2917 37.7917 58.8333 46.3542 64.7917 48.75C63.6042 51.875 62.0625 54.9792 59.5 57.2708L59.5208 57.25ZM49.0625 30.1042C48.75 25.4583 52.5208 21.625 56.8542 21.25C57.4583 26.625 51.9792 30.625 49.0625 30.1042Z" fill="black"/>
<defs>
<filter id="filter0_d_771_329" x="0" y="0" width="258" height="88" filterUnits="userSpaceOnUse" color-interpolation-filters="sRGB">
<feFlood flood-opacity="0" result="BackgroundImageFix"/>
<feColorMatrix in="SourceAlpha" type="matrix" values="0 0 0 0 0 0 0 0 0 0 0 0 0 0 0 0 0 0 127 0" result="hardAlpha"/>
<feOffset dy="4"/>
<feGaussianBlur stdDeviation="2"/>
<feComposite in2="hardAlpha" operator="out"/>
<feColorMatrix type="matrix" values="0 0 0 0 0 0 0 0 0 0 0 0 0 0 0 0 0 0 0.25 0"/>
<feBlend mode="normal" in2="BackgroundImageFix" result="effect1_dropShadow_771_329"/>
<feBlend mode="normal" in="SourceGraphic" in2="effect1_dropShadow_771_329" result="shape"/>
</filter>
</defs>
</svg>
