<svg width="270" height="48" viewBox="0 0 270 48" fill="none" xmlns="http://www.w3.org/2000/svg">
<path d="M60.519 24.25C60.519 22.5333 60.9024 21 61.669 19.65C62.4524 18.2833 63.5107 17.225 64.844 16.475C66.194 15.7083 67.7024 15.325 69.369 15.325C71.319 15.325 73.0274 15.825 74.494 16.825C75.9607 17.825 76.9857 19.2083 77.569 20.975H73.544C73.144 20.1417 72.5774 19.5167 71.844 19.1C71.1274 18.6833 70.294 18.475 69.344 18.475C68.3274 18.475 67.419 18.7167 66.619 19.2C65.8357 19.6667 65.219 20.3333 64.769 21.2C64.3357 22.0667 64.119 23.0833 64.119 24.25C64.119 25.4 64.3357 26.4167 64.769 27.3C65.219 28.1667 65.8357 28.8417 66.619 29.325C67.419 29.7917 68.3274 30.025 69.344 30.025C70.294 30.025 71.1274 29.8167 71.844 29.4C72.5774 28.9667 73.144 28.3333 73.544 27.5H77.569C76.9857 29.2833 75.9607 30.675 74.494 31.675C73.044 32.6583 71.3357 33.15 69.369 33.15C67.7024 33.15 66.194 32.775 64.844 32.025C63.5107 31.2583 62.4524 30.2 61.669 28.85C60.9024 27.5 60.519 25.9667 60.519 24.25ZM88.3585 18.95C89.4085 18.95 90.3418 19.1833 91.1585 19.65C91.9752 20.1 92.6085 20.775 93.0585 21.675C93.5252 22.5583 93.7585 23.625 93.7585 24.875V33H90.2585V25.35C90.2585 24.25 89.9835 23.4083 89.4335 22.825C88.8835 22.225 88.1335 21.925 87.1835 21.925C86.2168 21.925 85.4502 22.225 84.8835 22.825C84.3335 23.4083 84.0585 24.25 84.0585 25.35V33H80.5585V14.5H84.0585V20.875C84.5085 20.275 85.1085 19.8083 85.8585 19.475C86.6085 19.125 87.4418 18.95 88.3585 18.95ZM96.1868 26.025C96.1868 24.625 96.4618 23.3833 97.0118 22.3C97.5785 21.2167 98.3368 20.3833 99.2868 19.8C100.253 19.2167 101.328 18.925 102.512 18.925C103.545 18.925 104.445 19.1333 105.212 19.55C105.995 19.9667 106.62 20.4917 107.087 21.125V19.15H110.612V33H107.087V30.975C106.637 31.625 106.012 32.1667 105.212 32.6C104.428 33.0167 103.52 33.225 102.487 33.225C101.32 33.225 100.253 32.925 99.2868 32.325C98.3368 31.725 97.5785 30.8833 97.0118 29.8C96.4618 28.7 96.1868 27.4417 96.1868 26.025ZM107.087 26.075C107.087 25.225 106.92 24.5 106.587 23.9C106.253 23.2833 105.803 22.8167 105.237 22.5C104.67 22.1667 104.062 22 103.412 22C102.762 22 102.162 22.1583 101.612 22.475C101.062 22.7917 100.612 23.2583 100.262 23.875C99.9285 24.475 99.7618 25.1917 99.7618 26.025C99.7618 26.8583 99.9285 27.5917 100.262 28.225C100.612 28.8417 101.062 29.3167 101.612 29.65C102.178 29.9833 102.778 30.15 103.412 30.15C104.062 30.15 104.67 29.9917 105.237 29.675C105.803 29.3417 106.253 28.875 106.587 28.275C106.92 27.6583 107.087 26.925 107.087 26.075ZM118.105 22.025V28.725C118.105 29.1917 118.214 29.5333 118.43 29.75C118.664 29.95 119.047 30.05 119.58 30.05H121.205V33H119.005C116.055 33 114.58 31.5667 114.58 28.7V22.025H112.93V19.15H114.58V15.725H118.105V19.15H121.205V22.025H118.105ZM148.88 19.15L144.83 33H141.055L138.53 23.325L136.005 33H132.205L128.13 19.15H131.68L134.13 29.7L136.78 19.15H140.48L143.08 29.675L145.53 19.15H148.88ZM152.548 17.5C151.932 17.5 151.415 17.3083 150.998 16.925C150.598 16.525 150.398 16.0333 150.398 15.45C150.398 14.8667 150.598 14.3833 150.998 14C151.415 13.6 151.932 13.4 152.548 13.4C153.165 13.4 153.673 13.6 154.073 14C154.49 14.3833 154.698 14.8667 154.698 15.45C154.698 16.0333 154.49 16.525 154.073 16.925C153.673 17.3083 153.165 17.5 152.548 17.5ZM154.273 19.15V33H150.773V19.15H154.273ZM161.806 22.025V28.725C161.806 29.1917 161.915 29.5333 162.131 29.75C162.365 29.95 162.748 30.05 163.281 30.05H164.906V33H162.706C159.756 33 158.281 31.5667 158.281 28.7V22.025H156.631V19.15H158.281V15.725H161.806V19.15H164.906V22.025H161.806ZM175.224 18.95C176.274 18.95 177.207 19.1833 178.024 19.65C178.84 20.1 179.474 20.775 179.924 21.675C180.39 22.5583 180.624 23.625 180.624 24.875V33H177.124V25.35C177.124 24.25 176.849 23.4083 176.299 22.825C175.749 22.225 174.999 21.925 174.049 21.925C173.082 21.925 172.315 22.225 171.749 22.825C171.199 23.4083 170.924 24.25 170.924 25.35V33H167.424V14.5H170.924V20.875C171.374 20.275 171.974 19.8083 172.724 19.475C173.474 19.125 174.307 18.95 175.224 18.95ZM199.809 24.05C200.792 24.2333 201.601 24.725 202.234 25.525C202.867 26.325 203.184 27.2417 203.184 28.275C203.184 29.2083 202.951 30.0333 202.484 30.75C202.034 31.45 201.376 32 200.509 32.4C199.642 32.8 198.617 33 197.434 33H189.909V15.55H197.109C198.292 15.55 199.309 15.7417 200.159 16.125C201.026 16.5083 201.676 17.0417 202.109 17.725C202.559 18.4083 202.784 19.1833 202.784 20.05C202.784 21.0667 202.509 21.9167 201.959 22.6C201.426 23.2833 200.709 23.7667 199.809 24.05ZM193.409 22.75H196.609C197.442 22.75 198.084 22.5667 198.534 22.2C198.984 21.8167 199.209 21.275 199.209 20.575C199.209 19.875 198.984 19.3333 198.534 18.95C198.084 18.5667 197.442 18.375 196.609 18.375H193.409V22.75ZM196.934 30.15C197.784 30.15 198.442 29.95 198.909 29.55C199.392 29.15 199.634 28.5833 199.634 27.85C199.634 27.1 199.384 26.5167 198.884 26.1C198.384 25.6667 197.709 25.45 196.859 25.45H193.409V30.15H196.934ZM212.124 33.225C210.79 33.225 209.59 32.9333 208.524 32.35C207.457 31.75 206.615 30.9083 205.999 29.825C205.399 28.7417 205.099 27.4917 205.099 26.075C205.099 24.6583 205.407 23.4083 206.024 22.325C206.657 21.2417 207.515 20.4083 208.599 19.825C209.682 19.225 210.89 18.925 212.224 18.925C213.557 18.925 214.765 19.225 215.849 19.825C216.932 20.4083 217.782 21.2417 218.399 22.325C219.032 23.4083 219.349 24.6583 219.349 26.075C219.349 27.4917 219.024 28.7417 218.374 29.825C217.74 30.9083 216.874 31.75 215.774 32.35C214.69 32.9333 213.474 33.225 212.124 33.225ZM212.124 30.175C212.757 30.175 213.349 30.025 213.899 29.725C214.465 29.4083 214.915 28.9417 215.249 28.325C215.582 27.7083 215.749 26.9583 215.749 26.075C215.749 24.7583 215.399 23.75 214.699 23.05C214.015 22.3333 213.174 21.975 212.174 21.975C211.174 21.975 210.332 22.3333 209.649 23.05C208.982 23.75 208.649 24.7583 208.649 26.075C208.649 27.3917 208.974 28.4083 209.624 29.125C210.29 29.825 211.124 30.175 212.124 30.175ZM228.066 33.225C226.733 33.225 225.533 32.9333 224.466 32.35C223.399 31.75 222.558 30.9083 221.941 29.825C221.341 28.7417 221.041 27.4917 221.041 26.075C221.041 24.6583 221.349 23.4083 221.966 22.325C222.599 21.2417 223.458 20.4083 224.541 19.825C225.624 19.225 226.833 18.925 228.166 18.925C229.499 18.925 230.708 19.225 231.791 19.825C232.874 20.4083 233.724 21.2417 234.341 22.325C234.974 23.4083 235.291 24.6583 235.291 26.075C235.291 27.4917 234.966 28.7417 234.316 29.825C233.683 30.9083 232.816 31.75 231.716 32.35C230.633 32.9333 229.416 33.225 228.066 33.225ZM228.066 30.175C228.699 30.175 229.291 30.025 229.841 29.725C230.408 29.4083 230.858 28.9417 231.191 28.325C231.524 27.7083 231.691 26.9583 231.691 26.075C231.691 24.7583 231.341 23.75 230.641 23.05C229.958 22.3333 229.116 21.975 228.116 21.975C227.116 21.975 226.274 22.3333 225.591 23.05C224.924 23.75 224.591 24.7583 224.591 26.075C224.591 27.3917 224.916 28.4083 225.566 29.125C226.233 29.825 227.066 30.175 228.066 30.175ZM246.058 33L241.358 27.1V33H237.858V14.5H241.358V25.025L246.008 19.15H250.558L244.458 26.1L250.608 33H246.058ZM257.758 33.225C256.625 33.225 255.608 33.025 254.708 32.625C253.808 32.2083 253.091 31.65 252.558 30.95C252.041 30.25 251.758 29.475 251.708 28.625H255.233C255.3 29.1583 255.558 29.6 256.008 29.95C256.475 30.3 257.05 30.475 257.733 30.475C258.4 30.475 258.916 30.3417 259.283 30.075C259.666 29.8083 259.858 29.4667 259.858 29.05C259.858 28.6 259.625 28.2667 259.158 28.05C258.708 27.8167 257.983 27.5667 256.983 27.3C255.95 27.05 255.1 26.7917 254.433 26.525C253.783 26.2583 253.216 25.85 252.733 25.3C252.266 24.75 252.033 24.0083 252.033 23.075C252.033 22.3083 252.25 21.6083 252.683 20.975C253.133 20.3417 253.766 19.8417 254.583 19.475C255.416 19.1083 256.391 18.925 257.508 18.925C259.158 18.925 260.475 19.3417 261.458 20.175C262.441 20.9917 262.983 22.1 263.083 23.5H259.733C259.683 22.95 259.45 22.5167 259.033 22.2C258.633 21.8667 258.091 21.7 257.408 21.7C256.775 21.7 256.283 21.8167 255.933 22.05C255.6 22.2833 255.433 22.6083 255.433 23.025C255.433 23.4917 255.666 23.85 256.133 24.1C256.6 24.3333 257.325 24.575 258.308 24.825C259.308 25.075 260.133 25.3333 260.783 25.6C261.433 25.8667 261.991 26.2833 262.458 26.85C262.941 27.4 263.191 28.1333 263.208 29.05C263.208 29.85 262.983 30.5667 262.533 31.2C262.1 31.8333 261.466 32.3333 260.633 32.7C259.816 33.05 258.858 33.225 257.758 33.225Z" fill="#C81243"/>
<path d="M26.61 45L24 43.5L30 33H39C39.7957 33 40.5587 32.6839 41.1213 32.1213C41.6839 31.5587 42 30.7956 42 30V12C42 11.2044 41.6839 10.4413 41.1213 9.87868C40.5587 9.31607 39.7957 9 39 9H9C8.20435 9 7.44129 9.31607 6.87868 9.87868C6.31607 10.4413 6 11.2044 6 12V30C6 30.7956 6.31607 31.5587 6.87868 32.1213C7.44129 32.6839 8.20435 33 9 33H22.5V36H9C7.4087 36 5.88258 35.3679 4.75736 34.2426C3.63214 33.1174 3 31.5913 3 30V12C3 10.4087 3.63214 8.88258 4.75736 7.75736C5.88258 6.63214 7.4087 6 9 6H39C40.5913 6 42.1174 6.63214 43.2426 7.75736C44.3679 8.88258 45 10.4087 45 12V30C45 31.5913 44.3679 33.1174 43.2426 34.2426C42.1174 35.3679 40.5913 36 39 36H31.74L26.61 45Z" fill="#C81243"/>
<path d="M12 15H36V18H12V15ZM12 24H27V27H12V24Z" fill="#C81243"/>
</svg>
