<svg width="258" height="88" viewBox="0 0 258 88" fill="none" xmlns="http://www.w3.org/2000/svg">
<g filter="url(#filter0_d_771_362)">
<rect x="4" width="250" height="80" rx="10" fill="#C81243"/>
</g>
<path d="M28.6875 20.8096V59.1885C28.6878 59.2718 28.7126 59.3531 28.7589 59.4223C28.8052 59.4915 28.8709 59.5455 28.9478 59.5776C29.0246 59.6096 29.1092 59.6182 29.191 59.6023C29.2727 59.5864 29.3479 59.5468 29.4072 59.4883L49.3906 40L29.4072 20.5098C29.3479 20.4514 29.2727 20.4117 29.191 20.3958C29.1092 20.38 29.0246 20.3886 28.9478 20.4206C28.8709 20.4526 28.8052 20.5066 28.7589 20.5758C28.7126 20.645 28.6878 20.7264 28.6875 20.8096ZM57.7695 31.9922L32.7129 18.1875L32.6973 18.1788C32.2656 17.9444 31.8555 18.5284 32.209 18.8682L51.8506 37.6495L57.7695 31.9922ZM32.2109 61.1319C31.8555 61.4717 32.2656 62.0557 32.6992 61.8213L32.7148 61.8125L57.7695 48.0079L51.8506 42.3487L32.2109 61.1319ZM67.8848 37.5586L60.8877 33.7051L54.3086 40L60.8877 46.292L67.8848 42.4415C69.7881 41.3897 69.7881 38.6104 67.8848 37.5586Z" fill="white"/>
<path d="M99.89 24.09C99.542 23.358 99.038 22.794 98.378 22.398C97.718 21.99 96.95 21.786 96.074 21.786C95.198 21.786 94.406 21.99 93.698 22.398C93.002 22.794 92.45 23.37 92.042 24.126C91.646 24.87 91.448 25.734 91.448 26.718C91.448 27.702 91.646 28.566 92.042 29.31C92.45 30.054 93.002 30.63 93.698 31.038C94.406 31.434 95.198 31.632 96.074 31.632C97.298 31.632 98.306 31.266 99.098 30.534C99.89 29.802 100.352 28.812 100.484 27.564H95.48V26.232H102.23V27.492C102.134 28.524 101.81 29.472 101.258 30.336C100.706 31.188 99.98 31.866 99.08 32.37C98.18 32.862 97.178 33.108 96.074 33.108C94.91 33.108 93.848 32.838 92.888 32.298C91.928 31.746 91.166 30.984 90.602 30.012C90.05 29.04 89.774 27.942 89.774 26.718C89.774 25.494 90.05 24.396 90.602 23.424C91.166 22.44 91.928 21.678 92.888 21.138C93.848 20.586 94.91 20.31 96.074 20.31C97.406 20.31 98.582 20.64 99.602 21.3C100.634 21.96 101.384 22.89 101.852 24.09H99.89ZM113.396 27.69C113.396 28.002 113.378 28.332 113.342 28.68H105.458C105.518 29.652 105.848 30.414 106.448 30.966C107.06 31.506 107.798 31.776 108.662 31.776C109.37 31.776 109.958 31.614 110.426 31.29C110.906 30.954 111.242 30.51 111.434 29.958H113.198C112.934 30.906 112.406 31.68 111.614 32.28C110.822 32.868 109.838 33.162 108.662 33.162C107.726 33.162 106.886 32.952 106.142 32.532C105.41 32.112 104.834 31.518 104.414 30.75C103.994 29.97 103.784 29.07 103.784 28.05C103.784 27.03 103.988 26.136 104.396 25.368C104.804 24.6 105.374 24.012 106.106 23.604C106.85 23.184 107.702 22.974 108.662 22.974C109.598 22.974 110.426 23.178 111.146 23.586C111.866 23.994 112.418 24.558 112.802 25.278C113.198 25.986 113.396 26.79 113.396 27.69ZM111.704 27.348C111.704 26.724 111.566 26.19 111.29 25.746C111.014 25.29 110.636 24.948 110.156 24.72C109.688 24.48 109.166 24.36 108.59 24.36C107.762 24.36 107.054 24.624 106.466 25.152C105.89 25.68 105.56 26.412 105.476 27.348H111.704ZM117.556 24.486V30.3C117.556 30.78 117.658 31.122 117.862 31.326C118.066 31.518 118.42 31.614 118.924 31.614H120.13V33H118.654C117.742 33 117.058 32.79 116.602 32.37C116.146 31.95 115.918 31.26 115.918 30.3V24.486H114.64V23.136H115.918V20.652H117.556V23.136H120.13V24.486H117.556ZM127.759 21.534C127.447 21.534 127.183 21.426 126.967 21.21C126.751 20.994 126.643 20.73 126.643 20.418C126.643 20.106 126.751 19.842 126.967 19.626C127.183 19.41 127.447 19.302 127.759 19.302C128.059 19.302 128.311 19.41 128.515 19.626C128.731 19.842 128.839 20.106 128.839 20.418C128.839 20.73 128.731 20.994 128.515 21.21C128.311 21.426 128.059 21.534 127.759 21.534ZM128.551 23.136V33H126.913V23.136H128.551ZM133.341 24.486V30.3C133.341 30.78 133.443 31.122 133.647 31.326C133.851 31.518 134.205 31.614 134.709 31.614H135.915V33H134.439C133.527 33 132.843 32.79 132.387 32.37C131.931 31.95 131.703 31.26 131.703 30.3V24.486H130.425V23.136H131.703V20.652H133.341V23.136H135.915V24.486H133.341ZM147.001 33.162C146.077 33.162 145.237 32.952 144.481 32.532C143.737 32.112 143.149 31.518 142.717 30.75C142.297 29.97 142.087 29.07 142.087 28.05C142.087 27.042 142.303 26.154 142.735 25.386C143.179 24.606 143.779 24.012 144.535 23.604C145.291 23.184 146.137 22.974 147.073 22.974C148.009 22.974 148.855 23.184 149.611 23.604C150.367 24.012 150.961 24.6 151.393 25.368C151.837 26.136 152.059 27.03 152.059 28.05C152.059 29.07 151.831 29.97 151.375 30.75C150.931 31.518 150.325 32.112 149.557 32.532C148.789 32.952 147.937 33.162 147.001 33.162ZM147.001 31.722C147.589 31.722 148.141 31.584 148.657 31.308C149.173 31.032 149.587 30.618 149.899 30.066C150.223 29.514 150.385 28.842 150.385 28.05C150.385 27.258 150.229 26.586 149.917 26.034C149.605 25.482 149.197 25.074 148.693 24.81C148.189 24.534 147.643 24.396 147.055 24.396C146.455 24.396 145.903 24.534 145.399 24.81C144.907 25.074 144.511 25.482 144.211 26.034C143.911 26.586 143.761 27.258 143.761 28.05C143.761 28.854 143.905 29.532 144.193 30.084C144.493 30.636 144.889 31.05 145.381 31.326C145.873 31.59 146.413 31.722 147.001 31.722ZM159.018 22.956C160.218 22.956 161.19 23.322 161.934 24.054C162.678 24.774 163.05 25.818 163.05 27.186V33H161.43V27.42C161.43 26.436 161.184 25.686 160.692 25.17C160.2 24.642 159.528 24.378 158.676 24.378C157.812 24.378 157.122 24.648 156.606 25.188C156.102 25.728 155.85 26.514 155.85 27.546V33H154.212V23.136H155.85V24.54C156.174 24.036 156.612 23.646 157.164 23.37C157.728 23.094 158.346 22.956 159.018 22.956Z" fill="white"/>
<path d="M102.32 44.288C101.936 43.584 101.408 43.048 100.736 42.68C100.064 42.312 99.28 42.128 98.384 42.128C97.392 42.128 96.512 42.352 95.744 42.8C94.976 43.248 94.376 43.888 93.944 44.72C93.512 45.552 93.296 46.512 93.296 47.6C93.296 48.72 93.512 49.696 93.944 50.528C94.392 51.36 95.008 52 95.792 52.448C96.576 52.896 97.488 53.12 98.528 53.12C99.808 53.12 100.856 52.784 101.672 52.112C102.488 51.424 103.024 50.472 103.28 49.256H97.52V46.688H106.592V49.616C106.368 50.784 105.888 51.864 105.152 52.856C104.416 53.848 103.464 54.648 102.296 55.256C101.144 55.848 99.848 56.144 98.408 56.144C96.792 56.144 95.328 55.784 94.016 55.064C92.72 54.328 91.696 53.312 90.944 52.016C90.208 50.72 89.84 49.248 89.84 47.6C89.84 45.952 90.208 44.48 90.944 43.184C91.696 41.872 92.72 40.856 94.016 40.136C95.328 39.4 96.784 39.032 98.384 39.032C100.272 39.032 101.912 39.496 103.304 40.424C104.696 41.336 105.656 42.624 106.184 44.288H102.32ZM114.982 56.216C113.702 56.216 112.55 55.936 111.526 55.376C110.502 54.8 109.694 53.992 109.102 52.952C108.526 51.912 108.238 50.712 108.238 49.352C108.238 47.992 108.534 46.792 109.126 45.752C109.734 44.712 110.558 43.912 111.598 43.352C112.638 42.776 113.798 42.488 115.078 42.488C116.358 42.488 117.518 42.776 118.558 43.352C119.598 43.912 120.414 44.712 121.006 45.752C121.614 46.792 121.918 47.992 121.918 49.352C121.918 50.712 121.606 51.912 120.982 52.952C120.374 53.992 119.542 54.8 118.486 55.376C117.446 55.936 116.278 56.216 114.982 56.216ZM114.982 53.288C115.59 53.288 116.158 53.144 116.686 52.856C117.23 52.552 117.662 52.104 117.982 51.512C118.302 50.92 118.462 50.2 118.462 49.352C118.462 48.088 118.126 47.12 117.454 46.448C116.798 45.76 115.99 45.416 115.03 45.416C114.07 45.416 113.262 45.76 112.606 46.448C111.966 47.12 111.646 48.088 111.646 49.352C111.646 50.616 111.958 51.592 112.582 52.28C113.222 52.952 114.022 53.288 114.982 53.288ZM130.287 56.216C129.007 56.216 127.855 55.936 126.831 55.376C125.807 54.8 124.999 53.992 124.407 52.952C123.831 51.912 123.543 50.712 123.543 49.352C123.543 47.992 123.839 46.792 124.431 45.752C125.039 44.712 125.863 43.912 126.903 43.352C127.943 42.776 129.103 42.488 130.383 42.488C131.663 42.488 132.823 42.776 133.863 43.352C134.903 43.912 135.719 44.712 136.311 45.752C136.919 46.792 137.223 47.992 137.223 49.352C137.223 50.712 136.911 51.912 136.287 52.952C135.679 53.992 134.847 54.8 133.791 55.376C132.751 55.936 131.583 56.216 130.287 56.216ZM130.287 53.288C130.895 53.288 131.463 53.144 131.991 52.856C132.535 52.552 132.967 52.104 133.287 51.512C133.607 50.92 133.767 50.2 133.767 49.352C133.767 48.088 133.431 47.12 132.759 46.448C132.103 45.76 131.295 45.416 130.335 45.416C129.375 45.416 128.567 45.76 127.911 46.448C127.271 47.12 126.951 48.088 126.951 49.352C126.951 50.616 127.263 51.592 127.887 52.28C128.527 52.952 129.327 53.288 130.287 53.288ZM144.895 42.488C145.887 42.488 146.759 42.688 147.511 43.088C148.263 43.472 148.855 43.976 149.287 44.6V42.704H152.671V56.096C152.671 57.328 152.423 58.424 151.927 59.384C151.431 60.36 150.687 61.128 149.695 61.688C148.703 62.264 147.503 62.552 146.095 62.552C144.207 62.552 142.655 62.112 141.439 61.232C140.239 60.352 139.559 59.152 139.399 57.632H142.735C142.911 58.24 143.287 58.72 143.863 59.072C144.455 59.44 145.167 59.624 145.999 59.624C146.975 59.624 147.767 59.328 148.375 58.736C148.983 58.16 149.287 57.28 149.287 56.096V54.032C148.855 54.656 148.255 55.176 147.487 55.592C146.735 56.008 145.871 56.216 144.895 56.216C143.775 56.216 142.751 55.928 141.823 55.352C140.895 54.776 140.159 53.968 139.615 52.928C139.087 51.872 138.823 50.664 138.823 49.304C138.823 47.96 139.087 46.768 139.615 45.728C140.159 44.688 140.887 43.888 141.799 43.328C142.727 42.768 143.759 42.488 144.895 42.488ZM149.287 49.352C149.287 48.536 149.127 47.84 148.807 47.264C148.487 46.672 148.055 46.224 147.511 45.92C146.967 45.6 146.383 45.44 145.759 45.44C145.135 45.44 144.559 45.592 144.031 45.896C143.503 46.2 143.071 46.648 142.735 47.24C142.415 47.816 142.255 48.504 142.255 49.304C142.255 50.104 142.415 50.808 142.735 51.416C143.071 52.008 143.503 52.464 144.031 52.784C144.575 53.104 145.151 53.264 145.759 53.264C146.383 53.264 146.967 53.112 147.511 52.808C148.055 52.488 148.487 52.04 148.807 51.464C149.127 50.872 149.287 50.168 149.287 49.352ZM159.313 38.24V56H155.953V38.24H159.313ZM174.993 49.064C174.993 49.544 174.961 49.976 174.897 50.36H165.177C165.257 51.32 165.593 52.072 166.185 52.616C166.777 53.16 167.505 53.432 168.369 53.432C169.617 53.432 170.505 52.896 171.033 51.824H174.657C174.273 53.104 173.537 54.16 172.449 54.992C171.361 55.808 170.025 56.216 168.441 56.216C167.161 56.216 166.009 55.936 164.985 55.376C163.977 54.8 163.185 53.992 162.609 52.952C162.049 51.912 161.769 50.712 161.769 49.352C161.769 47.976 162.049 46.768 162.609 45.728C163.169 44.688 163.953 43.888 164.961 43.328C165.969 42.768 167.129 42.488 168.441 42.488C169.705 42.488 170.833 42.76 171.825 43.304C172.833 43.848 173.609 44.624 174.153 45.632C174.713 46.624 174.993 47.768 174.993 49.064ZM171.513 48.104C171.497 47.24 171.185 46.552 170.577 46.04C169.969 45.512 169.225 45.248 168.345 45.248C167.513 45.248 166.809 45.504 166.233 46.016C165.673 46.512 165.329 47.208 165.201 48.104H171.513ZM195.38 44.432C195.38 45.328 195.164 46.168 194.732 46.952C194.316 47.736 193.652 48.368 192.74 48.848C191.844 49.328 190.708 49.568 189.332 49.568H186.524V56H183.164V39.248H189.332C190.628 39.248 191.732 39.472 192.644 39.92C193.556 40.368 194.236 40.984 194.684 41.768C195.148 42.552 195.38 43.44 195.38 44.432ZM189.188 46.856C190.116 46.856 190.804 46.648 191.252 46.232C191.7 45.8 191.924 45.2 191.924 44.432C191.924 42.8 191.012 41.984 189.188 41.984H186.524V46.856H189.188ZM201.125 38.24V56H197.765V38.24H201.125ZM203.581 49.304C203.581 47.96 203.845 46.768 204.373 45.728C204.917 44.688 205.645 43.888 206.557 43.328C207.485 42.768 208.517 42.488 209.653 42.488C210.645 42.488 211.509 42.688 212.245 43.088C212.997 43.488 213.597 43.992 214.045 44.6V42.704H217.429V56H214.045V54.056C213.613 54.68 213.013 55.2 212.245 55.616C211.493 56.016 210.621 56.216 209.629 56.216C208.509 56.216 207.485 55.928 206.557 55.352C205.645 54.776 204.917 53.968 204.373 52.928C203.845 51.872 203.581 50.664 203.581 49.304ZM214.045 49.352C214.045 48.536 213.885 47.84 213.565 47.264C213.245 46.672 212.813 46.224 212.269 45.92C211.725 45.6 211.141 45.44 210.517 45.44C209.893 45.44 209.317 45.592 208.789 45.896C208.261 46.2 207.829 46.648 207.493 47.24C207.173 47.816 207.013 48.504 207.013 49.304C207.013 50.104 207.173 50.808 207.493 51.416C207.829 52.008 208.261 52.464 208.789 52.784C209.333 53.104 209.909 53.264 210.517 53.264C211.141 53.264 211.725 53.112 212.269 52.808C212.813 52.488 213.245 52.04 213.565 51.464C213.885 50.872 214.045 50.168 214.045 49.352ZM233.431 42.704L225.199 62.288H221.623L224.503 55.664L219.175 42.704H222.943L226.375 51.992L229.855 42.704H233.431Z" fill="white"/>
<defs>
<filter id="filter0_d_771_362" x="0" y="0" width="258" height="88" filterUnits="userSpaceOnUse" color-interpolation-filters="sRGB">
<feFlood flood-opacity="0" result="BackgroundImageFix"/>
<feColorMatrix in="SourceAlpha" type="matrix" values="0 0 0 0 0 0 0 0 0 0 0 0 0 0 0 0 0 0 127 0" result="hardAlpha"/>
<feOffset dy="4"/>
<feGaussianBlur stdDeviation="2"/>
<feComposite in2="hardAlpha" operator="out"/>
<feColorMatrix type="matrix" values="0 0 0 0 0 0 0 0 0 0 0 0 0 0 0 0 0 0 0.25 0"/>
<feBlend mode="normal" in2="BackgroundImageFix" result="effect1_dropShadow_771_362"/>
<feBlend mode="normal" in="SourceGraphic" in2="effect1_dropShadow_771_362" result="shape"/>
</filter>
</defs>
</svg>
