<svg width="279" height="61" viewBox="0 0 279 61" fill="none" xmlns="http://www.w3.org/2000/svg">
<path d="M15.008 35L7.456 25.08V35H1.984V12.536H7.456V22.392L14.944 12.536H21.376L12.672 23.544L21.696 35H15.008ZM34.5685 16.92V21.464H41.8965V25.688H34.5685V30.616H42.8565V35H29.0965V12.536H42.8565V16.92H34.5685ZM70.473 12.536L62.697 27.576V35H57.225V27.576L49.449 12.536H55.657L60.009 21.944L64.329 12.536H70.473ZM103.683 12.536V16.92H94.531V21.656H101.379V25.912H94.531V35H89.059V12.536H103.683ZM116.831 16.92V21.464H124.159V25.688H116.831V30.616H125.119V35H111.359V12.536H125.119V16.92H116.831ZM147.456 31.032H139.072L137.728 35H132L140.128 12.536H146.464L154.592 35H148.8L147.456 31.032ZM146.048 26.808L143.264 18.584L140.512 26.808H146.048ZM178.025 12.536V16.92H172.073V35H166.601V16.92H160.649V12.536H178.025ZM190.947 12.536V25.976C190.947 27.32 191.278 28.3547 191.939 29.08C192.601 29.8053 193.571 30.168 194.851 30.168C196.131 30.168 197.113 29.8053 197.795 29.08C198.478 28.3547 198.819 27.32 198.819 25.976V12.536H204.291V25.944C204.291 27.9493 203.865 29.6453 203.011 31.032C202.158 32.4187 201.006 33.464 199.555 34.168C198.126 34.872 196.526 35.224 194.755 35.224C192.985 35.224 191.395 34.8827 189.987 34.2C188.601 33.496 187.502 32.4507 186.691 31.064C185.881 29.656 185.475 27.9493 185.475 25.944V12.536H190.947ZM224.39 35L219.718 26.52H218.406V35H212.934V12.536H222.118C223.889 12.536 225.393 12.8453 226.63 13.464C227.889 14.0827 228.827 14.936 229.446 16.024C230.065 17.0907 230.374 18.2853 230.374 19.608C230.374 21.1013 229.947 22.4347 229.094 23.608C228.262 24.7813 227.025 25.6133 225.382 26.104L230.566 35H224.39ZM218.406 22.648H221.798C222.801 22.648 223.547 22.4027 224.038 21.912C224.55 21.4213 224.806 20.728 224.806 19.832C224.806 18.9787 224.55 18.3067 224.038 17.816C223.547 17.3253 222.801 17.08 221.798 17.08H218.406V22.648ZM244.081 16.92V21.464H251.409V25.688H244.081V30.616H252.369V35H238.609V12.536H252.369V16.92H244.081ZM268.849 35.224C267.207 35.224 265.735 34.9573 264.433 34.424C263.132 33.8907 262.087 33.1013 261.297 32.056C260.529 31.0107 260.124 29.752 260.081 28.28H265.905C265.991 29.112 266.279 29.752 266.769 30.2C267.26 30.6267 267.9 30.84 268.689 30.84C269.5 30.84 270.14 30.6587 270.609 30.296C271.079 29.912 271.313 29.3893 271.313 28.728C271.313 28.1733 271.121 27.7147 270.737 27.352C270.375 26.9893 269.916 26.6907 269.361 26.456C268.828 26.2213 268.06 25.9547 267.057 25.656C265.607 25.208 264.423 24.76 263.505 24.312C262.588 23.864 261.799 23.2027 261.137 22.328C260.476 21.4533 260.145 20.312 260.145 18.904C260.145 16.8133 260.903 15.1813 262.417 14.008C263.932 12.8133 265.905 12.216 268.337 12.216C270.812 12.216 272.807 12.8133 274.321 14.008C275.836 15.1813 276.647 16.824 276.753 18.936H270.833C270.791 18.2107 270.524 17.6453 270.033 17.24C269.543 16.8133 268.913 16.6 268.145 16.6C267.484 16.6 266.951 16.7813 266.545 17.144C266.14 17.4853 265.937 17.9867 265.937 18.648C265.937 19.3733 266.279 19.9387 266.961 20.344C267.644 20.7493 268.711 21.1867 270.161 21.656C271.612 22.1467 272.785 22.616 273.681 23.064C274.599 23.512 275.388 24.1627 276.049 25.016C276.711 25.8693 277.041 26.968 277.041 28.312C277.041 29.592 276.711 30.7547 276.049 31.8C275.409 32.8453 274.471 33.6773 273.233 34.296C271.996 34.9147 270.535 35.224 268.849 35.224Z" fill="white"/>
<line x1="0.989258" y1="57.6474" x2="279.003" y2="57.6474" stroke="#C81243" stroke-width="5"/>
</svg>
