<svg width="218" height="48" viewBox="0 0 218 48" fill="none" xmlns="http://www.w3.org/2000/svg">
<path d="M77.4644 15.55V33H73.9644V21.65L69.2894 33H66.6394L61.9394 21.65V33H58.4394V15.55H62.4144L67.9644 28.525L73.5144 15.55H77.4644ZM80.0247 26.025C80.0247 24.625 80.2997 23.3833 80.8497 22.3C81.4164 21.2167 82.1747 20.3833 83.1247 19.8C84.0914 19.2167 85.1664 18.925 86.3497 18.925C87.383 18.925 88.283 19.1333 89.0497 19.55C89.833 19.9667 90.458 20.4917 90.9247 21.125V19.15H94.4497V33H90.9247V30.975C90.4747 31.625 89.8497 32.1667 89.0497 32.6C88.2664 33.0167 87.358 33.225 86.3247 33.225C85.158 33.225 84.0914 32.925 83.1247 32.325C82.1747 31.725 81.4164 30.8833 80.8497 29.8C80.2997 28.7 80.0247 27.4417 80.0247 26.025ZM90.9247 26.075C90.9247 25.225 90.758 24.5 90.4247 23.9C90.0914 23.2833 89.6414 22.8167 89.0747 22.5C88.508 22.1667 87.8997 22 87.2497 22C86.5997 22 85.9997 22.1583 85.4497 22.475C84.8997 22.7917 84.4497 23.2583 84.0997 23.875C83.7664 24.475 83.5997 25.1917 83.5997 26.025C83.5997 26.8583 83.7664 27.5917 84.0997 28.225C84.4497 28.8417 84.8997 29.3167 85.4497 29.65C86.0164 29.9833 86.6164 30.15 87.2497 30.15C87.8997 30.15 88.508 29.9917 89.0747 29.675C89.6414 29.3417 90.0914 28.875 90.4247 28.275C90.758 27.6583 90.9247 26.925 90.9247 26.075ZM101.368 21.3C101.818 20.5667 102.401 19.9917 103.118 19.575C103.851 19.1583 104.685 18.95 105.618 18.95V22.625H104.693C103.593 22.625 102.76 22.8833 102.193 23.4C101.643 23.9167 101.368 24.8167 101.368 26.1V33H97.8681V19.15H101.368V21.3ZM116.175 33L111.475 27.1V33H107.975V14.5H111.475V25.025L116.125 19.15H120.675L114.575 26.1L120.725 33H116.175ZM135.45 25.775C135.45 26.275 135.417 26.725 135.35 27.125H125.225C125.308 28.125 125.658 28.9083 126.275 29.475C126.892 30.0417 127.65 30.325 128.55 30.325C129.85 30.325 130.775 29.7667 131.325 28.65H135.1C134.7 29.9833 133.933 31.0833 132.8 31.95C131.667 32.8 130.275 33.225 128.625 33.225C127.292 33.225 126.092 32.9333 125.025 32.35C123.975 31.75 123.15 30.9083 122.55 29.825C121.967 28.7417 121.675 27.4917 121.675 26.075C121.675 24.6417 121.967 23.3833 122.55 22.3C123.133 21.2167 123.95 20.3833 125 19.8C126.05 19.2167 127.258 18.925 128.625 18.925C129.942 18.925 131.117 19.2083 132.15 19.775C133.2 20.3417 134.008 21.15 134.575 22.2C135.158 23.2333 135.45 24.425 135.45 25.775ZM131.825 24.775C131.808 23.875 131.483 23.1583 130.85 22.625C130.217 22.075 129.442 21.8 128.525 21.8C127.658 21.8 126.925 22.0667 126.325 22.6C125.742 23.1167 125.383 23.8417 125.25 24.775H131.825ZM142.08 22.025V28.725C142.08 29.1917 142.188 29.5333 142.405 29.75C142.638 29.95 143.021 30.05 143.555 30.05H145.18V33H142.98C140.03 33 138.555 31.5667 138.555 28.7V22.025H136.905V19.15H138.555V15.725H142.08V19.15H145.18V22.025H142.08ZM151.197 21.15C151.647 20.5167 152.264 19.9917 153.047 19.575C153.847 19.1417 154.756 18.925 155.772 18.925C156.956 18.925 158.022 19.2167 158.972 19.8C159.939 20.3833 160.697 21.2167 161.247 22.3C161.814 23.3667 162.097 24.6083 162.097 26.025C162.097 27.4417 161.814 28.7 161.247 29.8C160.697 30.8833 159.939 31.725 158.972 32.325C158.022 32.925 156.956 33.225 155.772 33.225C154.756 33.225 153.856 33.0167 153.072 32.6C152.306 32.1833 151.681 31.6583 151.197 31.025V39.6H147.697V19.15H151.197V21.15ZM158.522 26.025C158.522 25.1917 158.347 24.475 157.997 23.875C157.664 23.2583 157.214 22.7917 156.647 22.475C156.097 22.1583 155.497 22 154.847 22C154.214 22 153.614 22.1667 153.047 22.5C152.497 22.8167 152.047 23.2833 151.697 23.9C151.364 24.5167 151.197 25.2417 151.197 26.075C151.197 26.9083 151.364 27.6333 151.697 28.25C152.047 28.8667 152.497 29.3417 153.047 29.675C153.614 29.9917 154.214 30.15 154.847 30.15C155.497 30.15 156.097 29.9833 156.647 29.65C157.214 29.3167 157.664 28.8417 157.997 28.225C158.347 27.6083 158.522 26.875 158.522 26.025ZM168.141 14.5V33H164.641V14.5H168.141ZM170.699 26.025C170.699 24.625 170.974 23.3833 171.524 22.3C172.09 21.2167 172.849 20.3833 173.799 19.8C174.765 19.2167 175.84 18.925 177.024 18.925C178.057 18.925 178.957 19.1333 179.724 19.55C180.507 19.9667 181.132 20.4917 181.599 21.125V19.15H185.124V33H181.599V30.975C181.149 31.625 180.524 32.1667 179.724 32.6C178.94 33.0167 178.032 33.225 176.999 33.225C175.832 33.225 174.765 32.925 173.799 32.325C172.849 31.725 172.09 30.8833 171.524 29.8C170.974 28.7 170.699 27.4417 170.699 26.025ZM181.599 26.075C181.599 25.225 181.432 24.5 181.099 23.9C180.765 23.2833 180.315 22.8167 179.749 22.5C179.182 22.1667 178.574 22 177.924 22C177.274 22 176.674 22.1583 176.124 22.475C175.574 22.7917 175.124 23.2583 174.774 23.875C174.44 24.475 174.274 25.1917 174.274 26.025C174.274 26.8583 174.44 27.5917 174.774 28.225C175.124 28.8417 175.574 29.3167 176.124 29.65C176.69 29.9833 177.29 30.15 177.924 30.15C178.574 30.15 179.182 29.9917 179.749 29.675C180.315 29.3417 180.765 28.875 181.099 28.275C181.432 27.6583 181.599 26.925 181.599 26.075ZM187.642 26.075C187.642 24.6417 187.934 23.3917 188.517 22.325C189.1 21.2417 189.909 20.4083 190.942 19.825C191.975 19.225 193.159 18.925 194.492 18.925C196.209 18.925 197.625 19.3583 198.742 20.225C199.875 21.075 200.634 22.275 201.017 23.825H197.242C197.042 23.225 196.7 22.7583 196.217 22.425C195.75 22.075 195.167 21.9 194.467 21.9C193.467 21.9 192.675 22.2667 192.092 23C191.509 23.7167 191.217 24.7417 191.217 26.075C191.217 27.3917 191.509 28.4167 192.092 29.15C192.675 29.8667 193.467 30.225 194.467 30.225C195.884 30.225 196.809 29.5917 197.242 28.325H201.017C200.634 29.825 199.875 31.0167 198.742 31.9C197.609 32.7833 196.192 33.225 194.492 33.225C193.159 33.225 191.975 32.9333 190.942 32.35C189.909 31.75 189.1 30.9167 188.517 29.85C187.934 28.7667 187.642 27.5083 187.642 26.075ZM216.456 25.775C216.456 26.275 216.423 26.725 216.356 27.125H206.231C206.314 28.125 206.664 28.9083 207.281 29.475C207.898 30.0417 208.656 30.325 209.556 30.325C210.856 30.325 211.781 29.7667 212.331 28.65H216.106C215.706 29.9833 214.939 31.0833 213.806 31.95C212.673 32.8 211.281 33.225 209.631 33.225C208.298 33.225 207.098 32.9333 206.031 32.35C204.981 31.75 204.156 30.9083 203.556 29.825C202.973 28.7417 202.681 27.4917 202.681 26.075C202.681 24.6417 202.973 23.3833 203.556 22.3C204.139 21.2167 204.956 20.3833 206.006 19.8C207.056 19.2167 208.264 18.925 209.631 18.925C210.948 18.925 212.123 19.2083 213.156 19.775C214.206 20.3417 215.014 21.15 215.581 22.2C216.164 23.2333 216.456 24.425 216.456 25.775ZM212.831 24.775C212.814 23.875 212.489 23.1583 211.856 22.625C211.223 22.075 210.448 21.8 209.531 21.8C208.664 21.8 207.931 22.0667 207.331 22.6C206.748 23.1167 206.389 23.8417 206.256 24.775H212.831Z" fill="#C81243"/>
<path fill-rule="evenodd" clip-rule="evenodd" d="M9.263 6C8.885 6 8.548 6.262 8.418 6.656L6.11 13.667C6.03713 13.8887 5.99999 14.1206 6 14.354V17.143C6 18.72 7.151 20 8.571 20C9.991 20 11.143 18.72 11.143 17.143C11.143 18.721 12.294 20 13.714 20C15.134 20 16.286 18.72 16.286 17.143C16.286 18.721 17.437 20 18.857 20C20.277 20 21.427 18.722 21.429 17.145C21.429 18.722 22.58 20 24 20C25.42 20 26.571 18.72 26.571 17.143C26.571 18.721 27.723 20 29.143 20C30.563 20 31.713 18.722 31.714 17.145C31.715 18.722 32.866 20 34.286 20C35.706 20 36.857 18.72 36.857 17.143C36.857 18.721 38.008 20 39.429 20C40.849 20 42 18.72 42 17.143V14.354C42 14.1206 41.9629 13.8887 41.89 13.667L39.582 6.657C39.452 6.262 39.115 6 38.737 6H9.263Z" fill="#C81243"/>
<path fill-rule="evenodd" clip-rule="evenodd" d="M10 21.23V29H7.5C7.36739 29 7.24021 29.0527 7.14645 29.1464C7.05268 29.2402 7 29.3674 7 29.5V30.5C7 30.6326 7.05268 30.7598 7.14645 30.8536C7.24021 30.9473 7.36739 31 7.5 31H40.5C40.6326 31 40.7598 30.9473 40.8536 30.8536C40.9473 30.7598 41 30.6326 41 30.5V29.5C41 29.3674 40.9473 29.2402 40.8536 29.1464C40.7598 29.0527 40.6326 29 40.5 29H38V21.23C37.5814 21.0632 37.1947 20.8254 36.857 20.527C36.5977 20.7556 36.3096 20.9493 36 21.103V29H12V21.103C11.6904 20.9493 11.4023 20.7556 11.143 20.527C10.807 20.822 10.423 21.062 10 21.23ZM36 19.273C36.085 19.188 36.165 19.097 36.24 19H36V19.273ZM37.474 19C37.6252 19.1959 37.8021 19.3705 38 19.519V19H37.474ZM10 19.519C10.1989 19.3716 10.376 19.1969 10.526 19H10V19.519ZM11.76 19H12V19.273C11.9141 19.1874 11.8339 19.0962 11.76 19ZM8.5 33C8.36739 33 8.24021 33.0527 8.14645 33.1464C8.05268 33.2402 8 33.3674 8 33.5V41C8 41.2652 8.10536 41.5196 8.29289 41.7071C8.48043 41.8946 8.73478 42 9 42H39C39.2652 42 39.5196 41.8946 39.7071 41.7071C39.8946 41.5196 40 41.2652 40 41V33.5C40 33.3674 39.9473 33.2402 39.8536 33.1464C39.7598 33.0527 39.6326 33 39.5 33H8.5Z" fill="#C81243"/>
<path d="M14 26.5C14 26.3674 14.0527 26.2402 14.1464 26.1464C14.2402 26.0527 14.3674 26 14.5 26H17.5C17.6326 26 17.7598 26.0527 17.8536 26.1464C17.9473 26.2402 18 26.3674 18 26.5V28.5C18 28.6326 17.9473 28.7598 17.8536 28.8536C17.7598 28.9473 17.6326 29 17.5 29H14.5C14.3674 29 14.2402 28.9473 14.1464 28.8536C14.0527 28.7598 14 28.6326 14 28.5V26.5Z" fill="#C81243"/>
<path d="M16 27.5C16 27.3674 16.0527 27.2402 16.1464 27.1464C16.2402 27.0527 16.3674 27 16.5 27H19.5C19.6326 27 19.7598 27.0527 19.8536 27.1464C19.9473 27.2402 20 27.3674 20 27.5V28.5C20 28.6326 19.9473 28.7598 19.8536 28.8536C19.7598 28.9473 19.6326 29 19.5 29H16.5C16.3674 29 16.2402 28.9473 16.1464 28.8536C16.0527 28.7598 16 28.6326 16 28.5V27.5ZM24 27.5C24 27.8978 23.842 28.2794 23.5607 28.5607C23.2794 28.842 22.8978 29 22.5 29C22.1022 29 21.7206 28.842 21.4393 28.5607C21.158 28.2794 21 27.8978 21 27.5C21 27.1022 21.158 26.7206 21.4393 26.4393C21.7206 26.158 22.1022 26 22.5 26C22.8978 26 23.2794 26.158 23.5607 26.4393C23.842 26.7206 24 27.1022 24 27.5Z" fill="#C81243"/>
</svg>
