<svg width="221" height="21" viewBox="0 0 221 21" fill="none" xmlns="http://www.w3.org/2000/svg">
<path d="M9.976 20.196C8.16533 20.196 6.49467 19.776 4.964 18.936C3.452 18.0773 2.248 16.892 1.352 15.38C0.474667 13.8493 0.036 12.132 0.036 10.228C0.036 8.324 0.474667 6.616 1.352 5.104C2.248 3.592 3.452 2.416 4.964 1.576C6.49467 0.717332 8.16533 0.287998 9.976 0.287998C11.8053 0.287998 13.476 0.717332 14.988 1.576C16.5187 2.416 17.7227 3.592 18.6 5.104C19.4773 6.616 19.916 8.324 19.916 10.228C19.916 12.132 19.4773 13.8493 18.6 15.38C17.7227 16.892 16.5187 18.0773 14.988 18.936C13.476 19.776 11.8053 20.196 9.976 20.196ZM9.976 17.424C11.264 17.424 12.412 17.1347 13.42 16.556C14.428 15.9587 15.212 15.1187 15.772 14.036C16.3507 12.9347 16.64 11.6653 16.64 10.228C16.64 8.79067 16.3507 7.53067 15.772 6.448C15.212 5.36533 14.428 4.53467 13.42 3.956C12.412 3.37733 11.264 3.088 9.976 3.088C8.688 3.088 7.54 3.37733 6.532 3.956C5.524 4.53467 4.73067 5.36533 4.152 6.448C3.592 7.53067 3.312 8.79067 3.312 10.228C3.312 11.6653 3.592 12.9347 4.152 14.036C4.73067 15.1187 5.524 15.9587 6.532 16.556C7.54 17.1347 8.688 17.424 9.976 17.424ZM30.421 0.539999V12.944C30.421 14.4187 30.8037 15.5293 31.569 16.276C32.353 17.0227 33.4357 17.396 34.817 17.396C36.217 17.396 37.2997 17.0227 38.065 16.276C38.849 15.5293 39.241 14.4187 39.241 12.944V0.539999H42.433V12.888C42.433 14.4747 42.0877 15.8187 41.397 16.92C40.7064 18.0213 39.7824 18.8427 38.625 19.384C37.4677 19.9253 36.189 20.196 34.789 20.196C33.389 20.196 32.1104 19.9253 30.953 19.384C29.8144 18.8427 28.909 18.0213 28.237 16.92C27.565 15.8187 27.229 14.4747 27.229 12.888V0.539999H30.421ZM60.8971 20L56.4171 12.216H53.9811V20H50.7891V0.539999H57.5091C59.0024 0.539999 60.2624 0.801332 61.2891 1.324C62.3344 1.84667 63.1091 2.54667 63.6131 3.424C64.1357 4.30133 64.3971 5.28133 64.3971 6.364C64.3971 7.63333 64.0237 8.79067 63.2771 9.836C62.5491 10.8627 61.4197 11.5627 59.8891 11.936L64.7051 20H60.8971ZM53.9811 9.668H57.5091C58.7037 9.668 59.5997 9.36933 60.1971 8.772C60.8131 8.17467 61.1211 7.372 61.1211 6.364C61.1211 5.356 60.8224 4.572 60.2251 4.012C59.6277 3.43333 58.7224 3.144 57.5091 3.144H53.9811V9.668ZM104.65 0.539999V20H101.458V6.672L95.5219 20H93.3099L87.3459 6.672V20H84.1539V0.539999H87.5979L94.4299 15.8L101.234 0.539999H104.65ZM116.237 0.539999V20H113.045V0.539999H116.237ZM131.04 20.196C129.733 20.196 128.557 19.972 127.512 19.524C126.467 19.0573 125.645 18.404 125.048 17.564C124.451 16.724 124.152 15.744 124.152 14.624H127.568C127.643 15.464 127.969 16.1547 128.548 16.696C129.145 17.2373 129.976 17.508 131.04 17.508C132.141 17.508 133 17.2467 133.616 16.724C134.232 16.1827 134.54 15.492 134.54 14.652C134.54 13.9987 134.344 13.4667 133.952 13.056C133.579 12.6453 133.103 12.328 132.524 12.104C131.964 11.88 131.18 11.6373 130.172 11.376C128.903 11.04 127.867 10.704 127.064 10.368C126.28 10.0133 125.608 9.472 125.048 8.744C124.488 8.016 124.208 7.04533 124.208 5.832C124.208 4.712 124.488 3.732 125.048 2.892C125.608 2.052 126.392 1.408 127.4 0.96C128.408 0.511999 129.575 0.287998 130.9 0.287998C132.785 0.287998 134.325 0.763998 135.52 1.716C136.733 2.64933 137.405 3.93733 137.536 5.58H134.008C133.952 4.87067 133.616 4.264 133 3.76C132.384 3.256 131.572 3.004 130.564 3.004C129.649 3.004 128.903 3.23733 128.324 3.704C127.745 4.17067 127.456 4.84267 127.456 5.72C127.456 6.31733 127.633 6.812 127.988 7.204C128.361 7.57733 128.828 7.876 129.388 8.1C129.948 8.324 130.713 8.56667 131.684 8.828C132.972 9.18267 134.017 9.53733 134.82 9.892C135.641 10.2467 136.332 10.7973 136.892 11.544C137.471 12.272 137.76 13.252 137.76 14.484C137.76 15.4733 137.489 16.4067 136.948 17.284C136.425 18.1613 135.651 18.8707 134.624 19.412C133.616 19.9347 132.421 20.196 131.04 20.196ZM152.139 20.196C150.832 20.196 149.656 19.972 148.611 19.524C147.565 19.0573 146.744 18.404 146.147 17.564C145.549 16.724 145.251 15.744 145.251 14.624H148.667C148.741 15.464 149.068 16.1547 149.647 16.696C150.244 17.2373 151.075 17.508 152.139 17.508C153.24 17.508 154.099 17.2467 154.715 16.724C155.331 16.1827 155.639 15.492 155.639 14.652C155.639 13.9987 155.443 13.4667 155.051 13.056C154.677 12.6453 154.201 12.328 153.623 12.104C153.063 11.88 152.279 11.6373 151.271 11.376C150.001 11.04 148.965 10.704 148.163 10.368C147.379 10.0133 146.707 9.472 146.147 8.744C145.587 8.016 145.307 7.04533 145.307 5.832C145.307 4.712 145.587 3.732 146.147 2.892C146.707 2.052 147.491 1.408 148.499 0.96C149.507 0.511999 150.673 0.287998 151.999 0.287998C153.884 0.287998 155.424 0.763998 156.619 1.716C157.832 2.64933 158.504 3.93733 158.635 5.58H155.107C155.051 4.87067 154.715 4.264 154.099 3.76C153.483 3.256 152.671 3.004 151.663 3.004C150.748 3.004 150.001 3.23733 149.423 3.704C148.844 4.17067 148.555 4.84267 148.555 5.72C148.555 6.31733 148.732 6.812 149.087 7.204C149.46 7.57733 149.927 7.876 150.487 8.1C151.047 8.324 151.812 8.56667 152.783 8.828C154.071 9.18267 155.116 9.53733 155.919 9.892C156.74 10.2467 157.431 10.7973 157.991 11.544C158.569 12.272 158.859 13.252 158.859 14.484C158.859 15.4733 158.588 16.4067 158.047 17.284C157.524 18.1613 156.749 18.8707 155.723 19.412C154.715 19.9347 153.52 20.196 152.139 20.196ZM170.017 0.539999V20H166.825V0.539999H170.017ZM187.284 20.196C185.473 20.196 183.802 19.776 182.272 18.936C180.76 18.0773 179.556 16.892 178.66 15.38C177.782 13.8493 177.344 12.132 177.344 10.228C177.344 8.324 177.782 6.616 178.66 5.104C179.556 3.592 180.76 2.416 182.272 1.576C183.802 0.717332 185.473 0.287998 187.284 0.287998C189.113 0.287998 190.784 0.717332 192.296 1.576C193.826 2.416 195.03 3.592 195.908 5.104C196.785 6.616 197.224 8.324 197.224 10.228C197.224 12.132 196.785 13.8493 195.908 15.38C195.03 16.892 193.826 18.0773 192.296 18.936C190.784 19.776 189.113 20.196 187.284 20.196ZM187.284 17.424C188.572 17.424 189.72 17.1347 190.728 16.556C191.736 15.9587 192.52 15.1187 193.08 14.036C193.658 12.9347 193.948 11.6653 193.948 10.228C193.948 8.79067 193.658 7.53067 193.08 6.448C192.52 5.36533 191.736 4.53467 190.728 3.956C189.72 3.37733 188.572 3.088 187.284 3.088C185.996 3.088 184.848 3.37733 183.84 3.956C182.832 4.53467 182.038 5.36533 181.46 6.448C180.9 7.53067 180.62 8.79067 180.62 10.228C180.62 11.6653 180.9 12.9347 181.46 14.036C182.038 15.1187 182.832 15.9587 183.84 16.556C184.848 17.1347 185.996 17.424 187.284 17.424ZM220.553 20H217.361L207.757 5.468V20H204.565V0.511999H207.757L217.361 15.016V0.511999H220.553V20Z" fill="white"/>
</svg>
