<svg width="100" height="100" viewBox="0 0 100 100" fill="none" xmlns="http://www.w3.org/2000/svg">
<path d="M50.014 87.5C44.8283 87.5 39.953 86.516 35.3879 84.548C30.8228 82.58 26.8518 79.9091 23.4749 76.5353C20.098 73.1616 17.4247 69.1943 15.4548 64.6335C13.4849 60.0727 12.5 55.1995 12.5 50.014C12.5 44.8283 13.4844 39.953 15.4531 35.3879C17.4219 30.8228 20.0938 26.8518 23.4688 23.4749C26.8438 20.098 30.8125 17.4247 35.375 15.4548C39.9375 13.4849 44.8125 12.5 50 12.5H51.6026V46.1378C52.4359 46.5491 53.0716 47.0958 53.5097 47.7779C53.9477 48.4601 54.1667 49.204 54.1667 50.0097C54.1667 51.1197 53.7514 52.09 52.9207 52.9207C52.09 53.7514 51.1165 54.1667 50 54.1667C48.8835 54.1667 47.91 53.7514 47.0793 52.9207C46.2486 52.09 45.8333 51.1228 45.8333 50.0192C45.8333 49.2178 46.0523 48.4868 46.4903 47.826C46.9284 47.1653 47.5641 46.6025 48.3974 46.1378V32.4199C43.8301 32.8098 40.0174 34.6835 36.9592 38.0408C33.9009 41.3982 32.3718 45.3846 32.3718 50C32.3718 54.8878 34.0878 59.0478 37.52 62.48C40.9522 65.9122 45.1122 67.6282 50 67.6282C54.8878 67.6282 59.0478 65.9122 62.48 62.48C65.9122 59.0478 67.6282 54.8878 67.6282 50C67.6282 47.3131 67.0994 44.8558 66.0417 42.6282C64.984 40.4007 63.5363 38.4722 61.6987 36.8429L64.0145 34.5272C66.1245 36.445 67.7885 38.7305 69.0065 41.3839C70.2244 44.0373 70.8333 46.9093 70.8333 50C70.8333 55.787 68.8097 60.706 64.7625 64.757C60.7152 68.8079 55.8007 70.8333 50.0189 70.8333C44.237 70.8333 39.3162 68.8079 35.2564 64.757C31.1966 60.706 29.1667 55.787 29.1667 50C29.1667 44.4498 31.023 39.7049 34.7355 35.7652C38.4482 31.8256 43.0021 29.6341 48.3974 29.1907V15.7292C39.2468 16.1191 31.5104 19.6153 25.1883 26.2179C18.8662 32.8205 15.7051 40.7478 15.7051 50C15.7051 59.5406 19.0358 67.6416 25.6971 74.3029C32.3584 80.9642 40.4594 84.2949 50 84.2949C59.5406 84.2949 67.6416 80.9642 74.3029 74.3029C80.9642 67.6416 84.2949 59.5406 84.2949 50C84.2949 45.0214 83.332 40.398 81.4062 36.1298C79.4805 31.8617 76.8349 28.1758 73.4696 25.0721L75.7853 22.7564C79.4231 26.2019 82.285 30.2549 84.371 34.9154C86.457 39.5759 87.5 44.5961 87.5 49.976C87.5 55.1683 86.516 60.047 84.548 64.6121C82.58 69.1772 79.9091 73.1482 76.5353 76.5251C73.1616 79.902 69.1943 82.5753 64.6335 84.5452C60.0727 86.5151 55.1995 87.5 50.014 87.5Z" fill="white"/>
</svg>
