<svg width="195" height="21" viewBox="0 0 195 21" fill="none" xmlns="http://www.w3.org/2000/svg">
<path d="M9.976 20.196C8.16533 20.196 6.49467 19.776 4.964 18.936C3.452 18.0773 2.248 16.892 1.352 15.38C0.474667 13.8493 0.036 12.132 0.036 10.228C0.036 8.324 0.474667 6.616 1.352 5.104C2.248 3.592 3.452 2.416 4.964 1.576C6.49467 0.717332 8.16533 0.287998 9.976 0.287998C11.8053 0.287998 13.476 0.717332 14.988 1.576C16.5187 2.416 17.7227 3.592 18.6 5.104C19.4773 6.616 19.916 8.324 19.916 10.228C19.916 12.132 19.4773 13.8493 18.6 15.38C17.7227 16.892 16.5187 18.0773 14.988 18.936C13.476 19.776 11.8053 20.196 9.976 20.196ZM9.976 17.424C11.264 17.424 12.412 17.1347 13.42 16.556C14.428 15.9587 15.212 15.1187 15.772 14.036C16.3507 12.9347 16.64 11.6653 16.64 10.228C16.64 8.79067 16.3507 7.53067 15.772 6.448C15.212 5.36533 14.428 4.53467 13.42 3.956C12.412 3.37733 11.264 3.088 9.976 3.088C8.688 3.088 7.54 3.37733 6.532 3.956C5.524 4.53467 4.73067 5.36533 4.152 6.448C3.592 7.53067 3.312 8.79067 3.312 10.228C3.312 11.6653 3.592 12.9347 4.152 14.036C4.73067 15.1187 5.524 15.9587 6.532 16.556C7.54 17.1347 8.688 17.424 9.976 17.424ZM30.421 0.539999V12.944C30.421 14.4187 30.8037 15.5293 31.569 16.276C32.353 17.0227 33.4357 17.396 34.817 17.396C36.217 17.396 37.2997 17.0227 38.065 16.276C38.849 15.5293 39.241 14.4187 39.241 12.944V0.539999H42.433V12.888C42.433 14.4747 42.0877 15.8187 41.397 16.92C40.7064 18.0213 39.7824 18.8427 38.625 19.384C37.4677 19.9253 36.189 20.196 34.789 20.196C33.389 20.196 32.1104 19.9253 30.953 19.384C29.8144 18.8427 28.909 18.0213 28.237 16.92C27.565 15.8187 27.229 14.4747 27.229 12.888V0.539999H30.421ZM60.8971 20L56.4171 12.216H53.9811V20H50.7891V0.539999H57.5091C59.0024 0.539999 60.2624 0.801332 61.2891 1.324C62.3344 1.84667 63.1091 2.54667 63.6131 3.424C64.1357 4.30133 64.3971 5.28133 64.3971 6.364C64.3971 7.63333 64.0237 8.79067 63.2771 9.836C62.5491 10.8627 61.4197 11.5627 59.8891 11.936L64.7051 20H60.8971ZM53.9811 9.668H57.5091C58.7037 9.668 59.5997 9.36933 60.1971 8.772C60.8131 8.17467 61.1211 7.372 61.1211 6.364C61.1211 5.356 60.8224 4.572 60.2251 4.012C59.6277 3.43333 58.7224 3.144 57.5091 3.144H53.9811V9.668ZM100.926 0.539999L93.6179 20H89.9219L82.5859 0.539999H86.0019L91.7699 16.724L97.5659 0.539999H100.926ZM110.987 0.539999V20H107.795V0.539999H110.987ZM125.79 20.196C124.483 20.196 123.307 19.972 122.262 19.524C121.217 19.0573 120.395 18.404 119.798 17.564C119.201 16.724 118.902 15.744 118.902 14.624H122.318C122.393 15.464 122.719 16.1547 123.298 16.696C123.895 17.2373 124.726 17.508 125.79 17.508C126.891 17.508 127.75 17.2467 128.366 16.724C128.982 16.1827 129.29 15.492 129.29 14.652C129.29 13.9987 129.094 13.4667 128.702 13.056C128.329 12.6453 127.853 12.328 127.274 12.104C126.714 11.88 125.93 11.6373 124.922 11.376C123.653 11.04 122.617 10.704 121.814 10.368C121.03 10.0133 120.358 9.472 119.798 8.744C119.238 8.016 118.958 7.04533 118.958 5.832C118.958 4.712 119.238 3.732 119.798 2.892C120.358 2.052 121.142 1.408 122.15 0.96C123.158 0.511999 124.325 0.287998 125.65 0.287998C127.535 0.287998 129.075 0.763998 130.27 1.716C131.483 2.64933 132.155 3.93733 132.286 5.58H128.758C128.702 4.87067 128.366 4.264 127.75 3.76C127.134 3.256 126.322 3.004 125.314 3.004C124.399 3.004 123.653 3.23733 123.074 3.704C122.495 4.17067 122.206 4.84267 122.206 5.72C122.206 6.31733 122.383 6.812 122.738 7.204C123.111 7.57733 123.578 7.876 124.138 8.1C124.698 8.324 125.463 8.56667 126.434 8.828C127.722 9.18267 128.767 9.53733 129.57 9.892C130.391 10.2467 131.082 10.7973 131.642 11.544C132.221 12.272 132.51 13.252 132.51 14.484C132.51 15.4733 132.239 16.4067 131.698 17.284C131.175 18.1613 130.401 18.8707 129.374 19.412C128.366 19.9347 127.171 20.196 125.79 20.196ZM143.669 0.539999V20H140.477V0.539999H143.669ZM160.935 20.196C159.125 20.196 157.454 19.776 155.923 18.936C154.411 18.0773 153.207 16.892 152.311 15.38C151.434 13.8493 150.995 12.132 150.995 10.228C150.995 8.324 151.434 6.616 152.311 5.104C153.207 3.592 154.411 2.416 155.923 1.576C157.454 0.717332 159.125 0.287998 160.935 0.287998C162.765 0.287998 164.435 0.717332 165.947 1.576C167.478 2.416 168.682 3.592 169.559 5.104C170.437 6.616 170.875 8.324 170.875 10.228C170.875 12.132 170.437 13.8493 169.559 15.38C168.682 16.892 167.478 18.0773 165.947 18.936C164.435 19.776 162.765 20.196 160.935 20.196ZM160.935 17.424C162.223 17.424 163.371 17.1347 164.379 16.556C165.387 15.9587 166.171 15.1187 166.731 14.036C167.31 12.9347 167.599 11.6653 167.599 10.228C167.599 8.79067 167.31 7.53067 166.731 6.448C166.171 5.36533 165.387 4.53467 164.379 3.956C163.371 3.37733 162.223 3.088 160.935 3.088C159.647 3.088 158.499 3.37733 157.491 3.956C156.483 4.53467 155.69 5.36533 155.111 6.448C154.551 7.53067 154.271 8.79067 154.271 10.228C154.271 11.6653 154.551 12.9347 155.111 14.036C155.69 15.1187 156.483 15.9587 157.491 16.556C158.499 17.1347 159.647 17.424 160.935 17.424ZM194.204 20H191.012L181.408 5.468V20H178.216V0.511999H181.408L191.012 15.016V0.511999H194.204V20Z" fill="white"/>
</svg>
