<svg width="352" height="48" viewBox="0 0 352 48" fill="none" xmlns="http://www.w3.org/2000/svg">
<path d="M70.9613 33L67.1113 26.2H65.4613V33H61.9613V15.55H68.5113C69.8613 15.55 71.0113 15.7917 71.9613 16.275C72.9113 16.7417 73.6197 17.3833 74.0863 18.2C74.5697 19 74.8113 19.9 74.8113 20.9C74.8113 22.05 74.478 23.0917 73.8113 24.025C73.1447 24.9417 72.153 25.575 70.8363 25.925L75.0113 33H70.9613ZM65.4613 23.575H68.3863C69.3363 23.575 70.0447 23.35 70.5113 22.9C70.978 22.4333 71.2113 21.7917 71.2113 20.975C71.2113 20.175 70.978 19.5583 70.5113 19.125C70.0447 18.675 69.3363 18.45 68.3863 18.45H65.4613V23.575ZM90.852 25.775C90.852 26.275 90.8186 26.725 90.752 27.125H80.627C80.7103 28.125 81.0603 28.9083 81.677 29.475C82.2936 30.0417 83.052 30.325 83.952 30.325C85.252 30.325 86.177 29.7667 86.727 28.65H90.502C90.102 29.9833 89.3353 31.0833 88.202 31.95C87.0686 32.8 85.677 33.225 84.027 33.225C82.6936 33.225 81.4936 32.9333 80.427 32.35C79.377 31.75 78.552 30.9083 77.952 29.825C77.3686 28.7417 77.077 27.4917 77.077 26.075C77.077 24.6417 77.3686 23.3833 77.952 22.3C78.5353 21.2167 79.352 20.3833 80.402 19.8C81.452 19.2167 82.6603 18.925 84.027 18.925C85.3436 18.925 86.5186 19.2083 87.552 19.775C88.602 20.3417 89.4103 21.15 89.977 22.2C90.5603 23.2333 90.852 24.425 90.852 25.775ZM87.227 24.775C87.2103 23.875 86.8853 23.1583 86.252 22.625C85.6186 22.075 84.8436 21.8 83.927 21.8C83.0603 21.8 82.327 22.0667 81.727 22.6C81.1436 23.1167 80.7853 23.8417 80.652 24.775H87.227ZM92.5066 26.075C92.5066 24.6417 92.7983 23.3917 93.3816 22.325C93.965 21.2417 94.7733 20.4083 95.8066 19.825C96.84 19.225 98.0233 18.925 99.3566 18.925C101.073 18.925 102.49 19.3583 103.607 20.225C104.74 21.075 105.498 22.275 105.882 23.825H102.107C101.907 23.225 101.565 22.7583 101.082 22.425C100.615 22.075 100.032 21.9 99.3316 21.9C98.3316 21.9 97.54 22.2667 96.9566 23C96.3733 23.7167 96.0816 24.7417 96.0816 26.075C96.0816 27.3917 96.3733 28.4167 96.9566 29.15C97.54 29.8667 98.3316 30.225 99.3316 30.225C100.748 30.225 101.673 29.5917 102.107 28.325H105.882C105.498 29.825 104.74 31.0167 103.607 31.9C102.473 32.7833 101.057 33.225 99.3566 33.225C98.0233 33.225 96.84 32.9333 95.8066 32.35C94.7733 31.75 93.965 30.9167 93.3816 29.85C92.7983 28.7667 92.5066 27.5083 92.5066 26.075ZM114.596 33.225C113.262 33.225 112.062 32.9333 110.996 32.35C109.929 31.75 109.087 30.9083 108.471 29.825C107.871 28.7417 107.571 27.4917 107.571 26.075C107.571 24.6583 107.879 23.4083 108.496 22.325C109.129 21.2417 109.987 20.4083 111.071 19.825C112.154 19.225 113.362 18.925 114.696 18.925C116.029 18.925 117.237 19.225 118.321 19.825C119.404 20.4083 120.254 21.2417 120.871 22.325C121.504 23.4083 121.821 24.6583 121.821 26.075C121.821 27.4917 121.496 28.7417 120.846 29.825C120.212 30.9083 119.346 31.75 118.246 32.35C117.162 32.9333 115.946 33.225 114.596 33.225ZM114.596 30.175C115.229 30.175 115.821 30.025 116.371 29.725C116.937 29.4083 117.387 28.9417 117.721 28.325C118.054 27.7083 118.221 26.9583 118.221 26.075C118.221 24.7583 117.871 23.75 117.171 23.05C116.487 22.3333 115.646 21.975 114.646 21.975C113.646 21.975 112.804 22.3333 112.121 23.05C111.454 23.75 111.121 24.7583 111.121 26.075C111.121 27.3917 111.446 28.4083 112.096 29.125C112.762 29.825 113.596 30.175 114.596 30.175ZM141.588 18.95C143.288 18.95 144.655 19.475 145.688 20.525C146.738 21.5583 147.263 23.0083 147.263 24.875V33H143.763V25.35C143.763 24.2667 143.488 23.4417 142.938 22.875C142.388 22.2917 141.638 22 140.688 22C139.738 22 138.98 22.2917 138.413 22.875C137.863 23.4417 137.588 24.2667 137.588 25.35V33H134.088V25.35C134.088 24.2667 133.813 23.4417 133.263 22.875C132.713 22.2917 131.963 22 131.013 22C130.046 22 129.28 22.2917 128.713 22.875C128.163 23.4417 127.888 24.2667 127.888 25.35V33H124.388V19.15H127.888V20.825C128.338 20.2417 128.913 19.7833 129.613 19.45C130.33 19.1167 131.113 18.95 131.963 18.95C133.046 18.95 134.013 19.1833 134.863 19.65C135.713 20.1 136.371 20.75 136.838 21.6C137.288 20.8 137.938 20.1583 138.788 19.675C139.655 19.1917 140.588 18.95 141.588 18.95ZM167.784 18.95C169.484 18.95 170.851 19.475 171.884 20.525C172.934 21.5583 173.459 23.0083 173.459 24.875V33H169.959V25.35C169.959 24.2667 169.684 23.4417 169.134 22.875C168.584 22.2917 167.834 22 166.884 22C165.934 22 165.176 22.2917 164.609 22.875C164.059 23.4417 163.784 24.2667 163.784 25.35V33H160.284V25.35C160.284 24.2667 160.009 23.4417 159.459 22.875C158.909 22.2917 158.159 22 157.209 22C156.243 22 155.476 22.2917 154.909 22.875C154.359 23.4417 154.084 24.2667 154.084 25.35V33H150.584V19.15H154.084V20.825C154.534 20.2417 155.109 19.7833 155.809 19.45C156.526 19.1167 157.309 18.95 158.159 18.95C159.243 18.95 160.209 19.1833 161.059 19.65C161.909 20.1 162.568 20.75 163.034 21.6C163.484 20.8 164.134 20.1583 164.984 19.675C165.851 19.1917 166.784 18.95 167.784 18.95ZM189.656 25.775C189.656 26.275 189.622 26.725 189.556 27.125H179.431C179.514 28.125 179.864 28.9083 180.481 29.475C181.097 30.0417 181.856 30.325 182.756 30.325C184.056 30.325 184.981 29.7667 185.531 28.65H189.306C188.906 29.9833 188.139 31.0833 187.006 31.95C185.872 32.8 184.481 33.225 182.831 33.225C181.497 33.225 180.297 32.9333 179.231 32.35C178.181 31.75 177.356 30.9083 176.756 29.825C176.172 28.7417 175.881 27.4917 175.881 26.075C175.881 24.6417 176.172 23.3833 176.756 22.3C177.339 21.2167 178.156 20.3833 179.206 19.8C180.256 19.2167 181.464 18.925 182.831 18.925C184.147 18.925 185.322 19.2083 186.356 19.775C187.406 20.3417 188.214 21.15 188.781 22.2C189.364 23.2333 189.656 24.425 189.656 25.775ZM186.031 24.775C186.014 23.875 185.689 23.1583 185.056 22.625C184.422 22.075 183.647 21.8 182.731 21.8C181.864 21.8 181.131 22.0667 180.531 22.6C179.947 23.1167 179.589 23.8417 179.456 24.775H186.031ZM199.885 18.95C201.535 18.95 202.869 19.475 203.885 20.525C204.902 21.5583 205.41 23.0083 205.41 24.875V33H201.91V25.35C201.91 24.25 201.635 23.4083 201.085 22.825C200.535 22.225 199.785 21.925 198.835 21.925C197.869 21.925 197.102 22.225 196.535 22.825C195.985 23.4083 195.71 24.25 195.71 25.35V33H192.21V19.15H195.71V20.875C196.177 20.275 196.769 19.8083 197.485 19.475C198.219 19.125 199.019 18.95 199.885 18.95ZM207.839 26.025C207.839 24.625 208.114 23.3833 208.664 22.3C209.23 21.2167 209.997 20.3833 210.964 19.8C211.93 19.2167 213.005 18.925 214.189 18.925C215.089 18.925 215.947 19.125 216.764 19.525C217.58 19.9083 218.23 20.425 218.714 21.075V14.5H222.264V33H218.714V30.95C218.28 31.6333 217.672 32.1833 216.889 32.6C216.105 33.0167 215.197 33.225 214.164 33.225C212.997 33.225 211.93 32.925 210.964 32.325C209.997 31.725 209.23 30.8833 208.664 29.8C208.114 28.7 207.839 27.4417 207.839 26.025ZM218.739 26.075C218.739 25.225 218.572 24.5 218.239 23.9C217.905 23.2833 217.455 22.8167 216.889 22.5C216.322 22.1667 215.714 22 215.064 22C214.414 22 213.814 22.1583 213.264 22.475C212.714 22.7917 212.264 23.2583 211.914 23.875C211.58 24.475 211.414 25.1917 211.414 26.025C211.414 26.8583 211.58 27.5917 211.914 28.225C212.264 28.8417 212.714 29.3167 213.264 29.65C213.83 29.9833 214.43 30.15 215.064 30.15C215.714 30.15 216.322 29.9917 216.889 29.675C217.455 29.3417 217.905 28.875 218.239 28.275C218.572 27.6583 218.739 26.925 218.739 26.075ZM238.557 25.775C238.557 26.275 238.524 26.725 238.457 27.125H228.332C228.415 28.125 228.765 28.9083 229.382 29.475C229.999 30.0417 230.757 30.325 231.657 30.325C232.957 30.325 233.882 29.7667 234.432 28.65H238.207C237.807 29.9833 237.04 31.0833 235.907 31.95C234.774 32.8 233.382 33.225 231.732 33.225C230.399 33.225 229.199 32.9333 228.132 32.35C227.082 31.75 226.257 30.9083 225.657 29.825C225.074 28.7417 224.782 27.4917 224.782 26.075C224.782 24.6417 225.074 23.3833 225.657 22.3C226.24 21.2167 227.057 20.3833 228.107 19.8C229.157 19.2167 230.365 18.925 231.732 18.925C233.049 18.925 234.224 19.2083 235.257 19.775C236.307 20.3417 237.115 21.15 237.682 22.2C238.265 23.2333 238.557 24.425 238.557 25.775ZM234.932 24.775C234.915 23.875 234.59 23.1583 233.957 22.625C233.324 22.075 232.549 21.8 231.632 21.8C230.765 21.8 230.032 22.0667 229.432 22.6C228.849 23.1167 228.49 23.8417 228.357 24.775H234.932ZM244.612 21.3C245.062 20.5667 245.645 19.9917 246.362 19.575C247.095 19.1583 247.928 18.95 248.862 18.95V22.625H247.937C246.837 22.625 246.003 22.8833 245.437 23.4C244.887 23.9167 244.612 24.8167 244.612 26.1V33H241.112V19.15H244.612V21.3ZM263.201 33.175C261.985 33.175 260.885 32.9667 259.901 32.55C258.935 32.1333 258.168 31.5333 257.601 30.75C257.035 29.9667 256.743 29.0417 256.726 27.975H260.476C260.526 28.6917 260.776 29.2583 261.226 29.675C261.693 30.0917 262.326 30.3 263.126 30.3C263.943 30.3 264.585 30.1083 265.051 29.725C265.518 29.325 265.751 28.8083 265.751 28.175C265.751 27.6583 265.593 27.2333 265.276 26.9C264.96 26.5667 264.56 26.3083 264.076 26.125C263.61 25.925 262.96 25.7083 262.126 25.475C260.993 25.1417 260.068 24.8167 259.351 24.5C258.651 24.1667 258.043 23.675 257.526 23.025C257.026 22.3583 256.776 21.475 256.776 20.375C256.776 19.3417 257.035 18.4417 257.551 17.675C258.068 16.9083 258.793 16.325 259.726 15.925C260.66 15.5083 261.726 15.3 262.926 15.3C264.726 15.3 266.185 15.7417 267.301 16.625C268.435 17.4917 269.06 18.7083 269.176 20.275H265.326C265.293 19.675 265.035 19.1833 264.551 18.8C264.085 18.4 263.46 18.2 262.676 18.2C261.993 18.2 261.443 18.375 261.026 18.725C260.626 19.075 260.426 19.5833 260.426 20.25C260.426 20.7167 260.576 21.1083 260.876 21.425C261.193 21.725 261.576 21.975 262.026 22.175C262.493 22.3583 263.143 22.575 263.976 22.825C265.11 23.1583 266.035 23.4917 266.751 23.825C267.468 24.1583 268.085 24.6583 268.601 25.325C269.118 25.9917 269.376 26.8667 269.376 27.95C269.376 28.8833 269.135 29.75 268.651 30.55C268.168 31.35 267.46 31.9917 266.526 32.475C265.593 32.9417 264.485 33.175 263.201 33.175ZM285.661 19.15L277.086 39.55H273.361L276.361 32.65L270.811 19.15H274.736L278.311 28.825L281.936 19.15H285.661ZM292.847 33.225C291.714 33.225 290.697 33.025 289.797 32.625C288.897 32.2083 288.181 31.65 287.647 30.95C287.131 30.25 286.847 29.475 286.797 28.625H290.322C290.389 29.1583 290.647 29.6 291.097 29.95C291.564 30.3 292.139 30.475 292.822 30.475C293.489 30.475 294.006 30.3417 294.372 30.075C294.756 29.8083 294.947 29.4667 294.947 29.05C294.947 28.6 294.714 28.2667 294.247 28.05C293.797 27.8167 293.072 27.5667 292.072 27.3C291.039 27.05 290.189 26.7917 289.522 26.525C288.872 26.2583 288.306 25.85 287.822 25.3C287.356 24.75 287.122 24.0083 287.122 23.075C287.122 22.3083 287.339 21.6083 287.772 20.975C288.222 20.3417 288.856 19.8417 289.672 19.475C290.506 19.1083 291.481 18.925 292.597 18.925C294.247 18.925 295.564 19.3417 296.547 20.175C297.531 20.9917 298.072 22.1 298.172 23.5H294.822C294.772 22.95 294.539 22.5167 294.122 22.2C293.722 21.8667 293.181 21.7 292.497 21.7C291.864 21.7 291.372 21.8167 291.022 22.05C290.689 22.2833 290.522 22.6083 290.522 23.025C290.522 23.4917 290.756 23.85 291.222 24.1C291.689 24.3333 292.414 24.575 293.397 24.825C294.397 25.075 295.222 25.3333 295.872 25.6C296.522 25.8667 297.081 26.2833 297.547 26.85C298.031 27.4 298.281 28.1333 298.297 29.05C298.297 29.85 298.072 30.5667 297.622 31.2C297.189 31.8333 296.556 32.3333 295.722 32.7C294.906 33.05 293.947 33.225 292.847 33.225ZM305.245 22.025V28.725C305.245 29.1917 305.354 29.5333 305.57 29.75C305.804 29.95 306.187 30.05 306.72 30.05H308.345V33H306.145C303.195 33 301.72 31.5667 301.72 28.7V22.025H300.07V19.15H301.72V15.725H305.245V19.15H308.345V22.025H305.245ZM323.738 25.775C323.738 26.275 323.704 26.725 323.638 27.125H313.513C313.596 28.125 313.946 28.9083 314.563 29.475C315.179 30.0417 315.938 30.325 316.838 30.325C318.138 30.325 319.063 29.7667 319.613 28.65H323.388C322.988 29.9833 322.221 31.0833 321.088 31.95C319.954 32.8 318.563 33.225 316.913 33.225C315.579 33.225 314.379 32.9333 313.313 32.35C312.263 31.75 311.438 30.9083 310.838 29.825C310.254 28.7417 309.963 27.4917 309.963 26.075C309.963 24.6417 310.254 23.3833 310.838 22.3C311.421 21.2167 312.238 20.3833 313.288 19.8C314.338 19.2167 315.546 18.925 316.913 18.925C318.229 18.925 319.404 19.2083 320.438 19.775C321.488 20.3417 322.296 21.15 322.863 22.2C323.446 23.2333 323.738 24.425 323.738 25.775ZM320.113 24.775C320.096 23.875 319.771 23.1583 319.138 22.625C318.504 22.075 317.729 21.8 316.813 21.8C315.946 21.8 315.213 22.0667 314.613 22.6C314.029 23.1167 313.671 23.8417 313.538 24.775H320.113ZM343.492 18.95C345.192 18.95 346.559 19.475 347.592 20.525C348.642 21.5583 349.167 23.0083 349.167 24.875V33H345.667V25.35C345.667 24.2667 345.392 23.4417 344.842 22.875C344.292 22.2917 343.542 22 342.592 22C341.642 22 340.884 22.2917 340.317 22.875C339.767 23.4417 339.492 24.2667 339.492 25.35V33H335.992V25.35C335.992 24.2667 335.717 23.4417 335.167 22.875C334.617 22.2917 333.867 22 332.917 22C331.951 22 331.184 22.2917 330.617 22.875C330.067 23.4417 329.792 24.2667 329.792 25.35V33H326.292V19.15H329.792V20.825C330.242 20.2417 330.817 19.7833 331.517 19.45C332.234 19.1167 333.017 18.95 333.867 18.95C334.951 18.95 335.917 19.1833 336.767 19.65C337.617 20.1 338.276 20.75 338.742 21.6C339.192 20.8 339.842 20.1583 340.692 19.675C341.559 19.1917 342.492 18.95 343.492 18.95Z" fill="#C81243"/>
<path d="M15 18H18V21H15V18ZM27 18H30V21H27V18ZM37.9922 33C38.5391 33 39.0547 33.1016 39.5391 33.3047C40.0234 33.5078 40.4453 33.7969 40.8047 34.1719C41.1641 34.5469 41.4531 34.9766 41.6719 35.4609C41.8906 35.9453 42 36.4609 42 37.0078V48H39V37.0078C39 36.7266 38.9062 36.4922 38.7188 36.3047C38.5312 36.1172 38.2891 36.0156 37.9922 36H7.00781C6.72656 36 6.49219 36.0937 6.30469 36.2812C6.11719 36.4687 6.01562 36.7109 6 37.0078V48H3V37.0078C3 36.4609 3.10156 35.9453 3.30469 35.4609C3.50781 34.9766 3.79688 34.5547 4.17188 34.1953C4.54688 33.8359 4.96875 33.5469 5.4375 33.3281C5.90625 33.1094 6.42969 33 7.00781 33H15V30H13.0078C12.4609 30 11.9453 29.8984 11.4609 29.6953C10.9766 29.4922 10.5469 29.2031 10.1719 28.8281C9.79688 28.4531 9.51562 28.0312 9.32812 27.5625C9.14062 27.0937 9.03125 26.5703 9 25.9922V24H6V18H9V16.0078C9 15.4609 9.10156 14.9453 9.30469 14.4609C9.50781 13.9766 9.79688 13.5547 10.1719 13.1953C10.5469 12.8359 10.9688 12.5469 11.4375 12.3281C11.9062 12.1094 12.4297 12 13.0078 12H21V7.10156C20.5469 6.83594 20.1875 6.46875 19.9219 6C19.6562 5.53125 19.5156 5.03125 19.5 4.5C19.5 4.07812 19.5781 3.6875 19.7344 3.32812C19.8906 2.96875 20.1016 2.65625 20.3672 2.39062C20.6328 2.125 20.9531 1.90625 21.3281 1.73437C21.7031 1.5625 22.0938 1.48438 22.5 1.5C22.9219 1.5 23.3125 1.57812 23.6719 1.73437C24.0312 1.89062 24.3438 2.10156 24.6094 2.36719C24.875 2.63281 25.0938 2.95312 25.2656 3.32812C25.4375 3.70312 25.5156 4.09375 25.5 4.5C25.5 5.03125 25.3672 5.53125 25.1016 6C24.8359 6.46875 24.4688 6.83594 24 7.10156V12H31.9922C32.5391 12 33.0547 12.1016 33.5391 12.3047C34.0234 12.5078 34.4453 12.7969 34.8047 13.1719C35.1641 13.5469 35.4531 13.9766 35.6719 14.4609C35.8906 14.9453 36 15.4609 36 16.0078V18H39V24H36V25.9922C36 26.5391 35.8984 27.0547 35.6953 27.5391C35.4922 28.0234 35.2031 28.4531 34.8281 28.8281C34.4531 29.2031 34.0234 29.4844 33.5391 29.6719C33.0547 29.8594 32.5391 29.9687 31.9922 30H30V33H37.9922ZM12 25.9922C12 26.2734 12.0938 26.5078 12.2812 26.6953C12.4688 26.8828 12.7109 26.9844 13.0078 27H31.9922C32.2734 27 32.5078 26.9062 32.6953 26.7187C32.8828 26.5312 32.9844 26.2891 33 25.9922V16.0078C33 15.7266 32.9062 15.4922 32.7188 15.3047C32.5312 15.1172 32.2891 15.0156 31.9922 15H13.0078C12.7266 15 12.4922 15.0937 12.3047 15.2812C12.1172 15.4687 12.0156 15.7109 12 16.0078V25.9922ZM18 33H27V30H18V33Z" fill="#C81243"/>
</svg>
