<svg width="326" height="48" viewBox="0 0 326 48" fill="none" xmlns="http://www.w3.org/2000/svg">
<path d="M65.2168 33.175C64.0001 33.175 62.9001 32.9667 61.9168 32.55C60.9501 32.1333 60.1835 31.5333 59.6168 30.75C59.0501 29.9667 58.7585 29.0417 58.7418 27.975H62.4918C62.5418 28.6917 62.7918 29.2583 63.2418 29.675C63.7085 30.0917 64.3418 30.3 65.1418 30.3C65.9585 30.3 66.6001 30.1083 67.0668 29.725C67.5335 29.325 67.7668 28.8083 67.7668 28.175C67.7668 27.6583 67.6085 27.2333 67.2918 26.9C66.9751 26.5667 66.5751 26.3083 66.0918 26.125C65.6251 25.925 64.9751 25.7083 64.1418 25.475C63.0085 25.1417 62.0835 24.8167 61.3668 24.5C60.6668 24.1667 60.0585 23.675 59.5418 23.025C59.0418 22.3583 58.7918 21.475 58.7918 20.375C58.7918 19.3417 59.0501 18.4417 59.5668 17.675C60.0835 16.9083 60.8085 16.325 61.7418 15.925C62.6751 15.5083 63.7418 15.3 64.9418 15.3C66.7418 15.3 68.2001 15.7417 69.3168 16.625C70.4501 17.4917 71.0751 18.7083 71.1918 20.275H67.3418C67.3085 19.675 67.0501 19.1833 66.5668 18.8C66.1001 18.4 65.4751 18.2 64.6918 18.2C64.0085 18.2 63.4585 18.375 63.0418 18.725C62.6418 19.075 62.4418 19.5833 62.4418 20.25C62.4418 20.7167 62.5918 21.1083 62.8918 21.425C63.2085 21.725 63.5918 21.975 64.0418 22.175C64.5085 22.3583 65.1585 22.575 65.9918 22.825C67.1251 23.1583 68.0501 23.4917 68.7668 23.825C69.4835 24.1583 70.1001 24.6583 70.6168 25.325C71.1335 25.9917 71.3918 26.8667 71.3918 27.95C71.3918 28.8833 71.1501 29.75 70.6668 30.55C70.1835 31.35 69.4751 31.9917 68.5418 32.475C67.6085 32.9417 66.5001 33.175 65.2168 33.175ZM87.3012 25.775C87.3012 26.275 87.2678 26.725 87.2012 27.125H77.0762C77.1595 28.125 77.5095 28.9083 78.1262 29.475C78.7428 30.0417 79.5012 30.325 80.4012 30.325C81.7012 30.325 82.6262 29.7667 83.1762 28.65H86.9512C86.5512 29.9833 85.7845 31.0833 84.6512 31.95C83.5178 32.8 82.1262 33.225 80.4762 33.225C79.1428 33.225 77.9428 32.9333 76.8762 32.35C75.8262 31.75 75.0012 30.9083 74.4012 29.825C73.8178 28.7417 73.5262 27.4917 73.5262 26.075C73.5262 24.6417 73.8178 23.3833 74.4012 22.3C74.9845 21.2167 75.8012 20.3833 76.8512 19.8C77.9012 19.2167 79.1095 18.925 80.4762 18.925C81.7928 18.925 82.9678 19.2083 84.0012 19.775C85.0512 20.3417 85.8595 21.15 86.4262 22.2C87.0095 23.2333 87.3012 24.425 87.3012 25.775ZM83.6762 24.775C83.6595 23.875 83.3345 23.1583 82.7012 22.625C82.0678 22.075 81.2928 21.8 80.3762 21.8C79.5095 21.8 78.7762 22.0667 78.1762 22.6C77.5928 23.1167 77.2345 23.8417 77.1012 24.775H83.6762ZM88.9559 26.025C88.9559 24.625 89.2309 23.3833 89.7809 22.3C90.3475 21.2167 91.1059 20.3833 92.0559 19.8C93.0225 19.2167 94.0975 18.925 95.2809 18.925C96.3142 18.925 97.2142 19.1333 97.9809 19.55C98.7642 19.9667 99.3892 20.4917 99.8559 21.125V19.15H103.381V33H99.8559V30.975C99.4059 31.625 98.7809 32.1667 97.9809 32.6C97.1975 33.0167 96.2892 33.225 95.2559 33.225C94.0892 33.225 93.0225 32.925 92.0559 32.325C91.1059 31.725 90.3475 30.8833 89.7809 29.8C89.2309 28.7 88.9559 27.4417 88.9559 26.025ZM99.8559 26.075C99.8559 25.225 99.6892 24.5 99.3559 23.9C99.0225 23.2833 98.5725 22.8167 98.0059 22.5C97.4392 22.1667 96.8309 22 96.1809 22C95.5309 22 94.9309 22.1583 94.3809 22.475C93.8309 22.7917 93.3809 23.2583 93.0309 23.875C92.6975 24.475 92.5309 25.1917 92.5309 26.025C92.5309 26.8583 92.6975 27.5917 93.0309 28.225C93.3809 28.8417 93.8309 29.3167 94.3809 29.65C94.9475 29.9833 95.5475 30.15 96.1809 30.15C96.8309 30.15 97.4392 29.9917 98.0059 29.675C98.5725 29.3417 99.0225 28.875 99.3559 28.275C99.6892 27.6583 99.8559 26.925 99.8559 26.075ZM123.999 18.95C125.699 18.95 127.066 19.475 128.099 20.525C129.149 21.5583 129.674 23.0083 129.674 24.875V33H126.174V25.35C126.174 24.2667 125.899 23.4417 125.349 22.875C124.799 22.2917 124.049 22 123.099 22C122.149 22 121.391 22.2917 120.824 22.875C120.274 23.4417 119.999 24.2667 119.999 25.35V33H116.499V25.35C116.499 24.2667 116.224 23.4417 115.674 22.875C115.124 22.2917 114.374 22 113.424 22C112.458 22 111.691 22.2917 111.124 22.875C110.574 23.4417 110.299 24.2667 110.299 25.35V33H106.799V19.15H110.299V20.825C110.749 20.2417 111.324 19.7833 112.024 19.45C112.741 19.1167 113.524 18.95 114.374 18.95C115.458 18.95 116.424 19.1833 117.274 19.65C118.124 20.1 118.783 20.75 119.249 21.6C119.699 20.8 120.349 20.1583 121.199 19.675C122.066 19.1917 122.999 18.95 123.999 18.95ZM136.496 14.5V33H132.996V14.5H136.496ZM152.829 25.775C152.829 26.275 152.795 26.725 152.729 27.125H142.604C142.687 28.125 143.037 28.9083 143.654 29.475C144.27 30.0417 145.029 30.325 145.929 30.325C147.229 30.325 148.154 29.7667 148.704 28.65H152.479C152.079 29.9833 151.312 31.0833 150.179 31.95C149.045 32.8 147.654 33.225 146.004 33.225C144.67 33.225 143.47 32.9333 142.404 32.35C141.354 31.75 140.529 30.9083 139.929 29.825C139.345 28.7417 139.054 27.4917 139.054 26.075C139.054 24.6417 139.345 23.3833 139.929 22.3C140.512 21.2167 141.329 20.3833 142.379 19.8C143.429 19.2167 144.637 18.925 146.004 18.925C147.32 18.925 148.495 19.2083 149.529 19.775C150.579 20.3417 151.387 21.15 151.954 22.2C152.537 23.2333 152.829 24.425 152.829 25.775ZM149.204 24.775C149.187 23.875 148.862 23.1583 148.229 22.625C147.595 22.075 146.82 21.8 145.904 21.8C145.037 21.8 144.304 22.0667 143.704 22.6C143.12 23.1167 142.762 23.8417 142.629 24.775H149.204ZM160.683 33.225C159.55 33.225 158.533 33.025 157.633 32.625C156.733 32.2083 156.017 31.65 155.483 30.95C154.967 30.25 154.683 29.475 154.633 28.625H158.158C158.225 29.1583 158.483 29.6 158.933 29.95C159.4 30.3 159.975 30.475 160.658 30.475C161.325 30.475 161.842 30.3417 162.208 30.075C162.592 29.8083 162.783 29.4667 162.783 29.05C162.783 28.6 162.55 28.2667 162.083 28.05C161.633 27.8167 160.908 27.5667 159.908 27.3C158.875 27.05 158.025 26.7917 157.358 26.525C156.708 26.2583 156.142 25.85 155.658 25.3C155.192 24.75 154.958 24.0083 154.958 23.075C154.958 22.3083 155.175 21.6083 155.608 20.975C156.058 20.3417 156.692 19.8417 157.508 19.475C158.342 19.1083 159.317 18.925 160.433 18.925C162.083 18.925 163.4 19.3417 164.383 20.175C165.367 20.9917 165.908 22.1 166.008 23.5H162.658C162.608 22.95 162.375 22.5167 161.958 22.2C161.558 21.8667 161.017 21.7 160.333 21.7C159.7 21.7 159.208 21.8167 158.858 22.05C158.525 22.2833 158.358 22.6083 158.358 23.025C158.358 23.4917 158.592 23.85 159.058 24.1C159.525 24.3333 160.25 24.575 161.233 24.825C162.233 25.075 163.058 25.3333 163.708 25.6C164.358 25.8667 164.917 26.2833 165.383 26.85C165.867 27.4 166.117 28.1333 166.133 29.05C166.133 29.85 165.908 30.5667 165.458 31.2C165.025 31.8333 164.392 32.3333 163.558 32.7C162.742 33.05 161.783 33.225 160.683 33.225ZM174.306 33.225C173.173 33.225 172.156 33.025 171.256 32.625C170.356 32.2083 169.64 31.65 169.106 30.95C168.59 30.25 168.306 29.475 168.256 28.625H171.781C171.848 29.1583 172.106 29.6 172.556 29.95C173.023 30.3 173.598 30.475 174.281 30.475C174.948 30.475 175.465 30.3417 175.831 30.075C176.215 29.8083 176.406 29.4667 176.406 29.05C176.406 28.6 176.173 28.2667 175.706 28.05C175.256 27.8167 174.531 27.5667 173.531 27.3C172.498 27.05 171.648 26.7917 170.981 26.525C170.331 26.2583 169.765 25.85 169.281 25.3C168.815 24.75 168.581 24.0083 168.581 23.075C168.581 22.3083 168.798 21.6083 169.231 20.975C169.681 20.3417 170.315 19.8417 171.131 19.475C171.965 19.1083 172.94 18.925 174.056 18.925C175.706 18.925 177.023 19.3417 178.006 20.175C178.99 20.9917 179.531 22.1 179.631 23.5H176.281C176.231 22.95 175.998 22.5167 175.581 22.2C175.181 21.8667 174.64 21.7 173.956 21.7C173.323 21.7 172.831 21.8167 172.481 22.05C172.148 22.2833 171.981 22.6083 171.981 23.025C171.981 23.4917 172.215 23.85 172.681 24.1C173.148 24.3333 173.873 24.575 174.856 24.825C175.856 25.075 176.681 25.3333 177.331 25.6C177.981 25.8667 178.54 26.2833 179.006 26.85C179.49 27.4 179.74 28.1333 179.756 29.05C179.756 29.85 179.531 30.5667 179.081 31.2C178.648 31.8333 178.015 32.3333 177.181 32.7C176.365 33.05 175.406 33.225 174.306 33.225ZM192.086 18.375V22.75H197.961V25.525H192.086V30.15H198.711V33H188.586V15.525H198.711V18.375H192.086ZM209.542 33L206.692 28.7L204.167 33H200.417L204.942 26.05L200.367 19.15H204.317L207.142 23.425L209.692 19.15H213.442L208.892 26.05L213.492 33H209.542ZM218.893 21.15C219.343 20.5167 219.96 19.9917 220.743 19.575C221.543 19.1417 222.451 18.925 223.468 18.925C224.651 18.925 225.718 19.2167 226.668 19.8C227.635 20.3833 228.393 21.2167 228.943 22.3C229.51 23.3667 229.793 24.6083 229.793 26.025C229.793 27.4417 229.51 28.7 228.943 29.8C228.393 30.8833 227.635 31.725 226.668 32.325C225.718 32.925 224.651 33.225 223.468 33.225C222.451 33.225 221.551 33.0167 220.768 32.6C220.001 32.1833 219.376 31.6583 218.893 31.025V39.6H215.393V19.15H218.893V21.15ZM226.218 26.025C226.218 25.1917 226.043 24.475 225.693 23.875C225.36 23.2583 224.91 22.7917 224.343 22.475C223.793 22.1583 223.193 22 222.543 22C221.91 22 221.31 22.1667 220.743 22.5C220.193 22.8167 219.743 23.2833 219.393 23.9C219.06 24.5167 218.893 25.2417 218.893 26.075C218.893 26.9083 219.06 27.6333 219.393 28.25C219.743 28.8667 220.193 29.3417 220.743 29.675C221.31 29.9917 221.91 30.15 222.543 30.15C223.193 30.15 223.793 29.9833 224.343 29.65C224.91 29.3167 225.36 28.8417 225.693 28.225C226.043 27.6083 226.218 26.875 226.218 26.025ZM245.211 25.775C245.211 26.275 245.178 26.725 245.111 27.125H234.986C235.07 28.125 235.42 28.9083 236.036 29.475C236.653 30.0417 237.411 30.325 238.311 30.325C239.611 30.325 240.536 29.7667 241.086 28.65H244.861C244.461 29.9833 243.695 31.0833 242.561 31.95C241.428 32.8 240.036 33.225 238.386 33.225C237.053 33.225 235.853 32.9333 234.786 32.35C233.736 31.75 232.911 30.9083 232.311 29.825C231.728 28.7417 231.436 27.4917 231.436 26.075C231.436 24.6417 231.728 23.3833 232.311 22.3C232.895 21.2167 233.711 20.3833 234.761 19.8C235.811 19.2167 237.02 18.925 238.386 18.925C239.703 18.925 240.878 19.2083 241.911 19.775C242.961 20.3417 243.77 21.15 244.336 22.2C244.92 23.2333 245.211 24.425 245.211 25.775ZM241.586 24.775C241.57 23.875 241.245 23.1583 240.611 22.625C239.978 22.075 239.203 21.8 238.286 21.8C237.42 21.8 236.686 22.0667 236.086 22.6C235.503 23.1167 235.145 23.8417 235.011 24.775H241.586ZM251.266 21.3C251.716 20.5667 252.299 19.9917 253.016 19.575C253.749 19.1583 254.583 18.95 255.516 18.95V22.625H254.591C253.491 22.625 252.658 22.8833 252.091 23.4C251.541 23.9167 251.266 24.8167 251.266 26.1V33H247.766V19.15H251.266V21.3ZM259.648 17.5C259.032 17.5 258.515 17.3083 258.098 16.925C257.698 16.525 257.498 16.0333 257.498 15.45C257.498 14.8667 257.698 14.3833 258.098 14C258.515 13.6 259.032 13.4 259.648 13.4C260.265 13.4 260.773 13.6 261.173 14C261.59 14.3833 261.798 14.8667 261.798 15.45C261.798 16.0333 261.59 16.525 261.173 16.925C260.773 17.3083 260.265 17.5 259.648 17.5ZM261.373 19.15V33H257.873V19.15H261.373ZM277.706 25.775C277.706 26.275 277.673 26.725 277.606 27.125H267.481C267.565 28.125 267.915 28.9083 268.531 29.475C269.148 30.0417 269.906 30.325 270.806 30.325C272.106 30.325 273.031 29.7667 273.581 28.65H277.356C276.956 29.9833 276.19 31.0833 275.056 31.95C273.923 32.8 272.531 33.225 270.881 33.225C269.548 33.225 268.348 32.9333 267.281 32.35C266.231 31.75 265.406 30.9083 264.806 29.825C264.223 28.7417 263.931 27.4917 263.931 26.075C263.931 24.6417 264.223 23.3833 264.806 22.3C265.39 21.2167 266.206 20.3833 267.256 19.8C268.306 19.2167 269.515 18.925 270.881 18.925C272.198 18.925 273.373 19.2083 274.406 19.775C275.456 20.3417 276.265 21.15 276.831 22.2C277.415 23.2333 277.706 24.425 277.706 25.775ZM274.081 24.775C274.065 23.875 273.74 23.1583 273.106 22.625C272.473 22.075 271.698 21.8 270.781 21.8C269.915 21.8 269.181 22.0667 268.581 22.6C267.998 23.1167 267.64 23.8417 267.506 24.775H274.081ZM287.936 18.95C289.586 18.95 290.919 19.475 291.936 20.525C292.953 21.5583 293.461 23.0083 293.461 24.875V33H289.961V25.35C289.961 24.25 289.686 23.4083 289.136 22.825C288.586 22.225 287.836 21.925 286.886 21.925C285.919 21.925 285.153 22.225 284.586 22.825C284.036 23.4083 283.761 24.25 283.761 25.35V33H280.261V19.15H283.761V20.875C284.228 20.275 284.819 19.8083 285.536 19.475C286.269 19.125 287.069 18.95 287.936 18.95ZM295.889 26.075C295.889 24.6417 296.181 23.3917 296.764 22.325C297.348 21.2417 298.156 20.4083 299.189 19.825C300.223 19.225 301.406 18.925 302.739 18.925C304.456 18.925 305.873 19.3583 306.989 20.225C308.123 21.075 308.881 22.275 309.264 23.825H305.489C305.289 23.225 304.948 22.7583 304.464 22.425C303.998 22.075 303.414 21.9 302.714 21.9C301.714 21.9 300.923 22.2667 300.339 23C299.756 23.7167 299.464 24.7417 299.464 26.075C299.464 27.3917 299.756 28.4167 300.339 29.15C300.923 29.8667 301.714 30.225 302.714 30.225C304.131 30.225 305.056 29.5917 305.489 28.325H309.264C308.881 29.825 308.123 31.0167 306.989 31.9C305.856 32.7833 304.439 33.225 302.739 33.225C301.406 33.225 300.223 32.9333 299.189 32.35C298.156 31.75 297.348 30.9167 296.764 29.85C296.181 28.7667 295.889 27.5083 295.889 26.075ZM324.704 25.775C324.704 26.275 324.67 26.725 324.604 27.125H314.479C314.562 28.125 314.912 28.9083 315.529 29.475C316.145 30.0417 316.904 30.325 317.804 30.325C319.104 30.325 320.029 29.7667 320.579 28.65H324.354C323.954 29.9833 323.187 31.0833 322.054 31.95C320.92 32.8 319.529 33.225 317.879 33.225C316.545 33.225 315.345 32.9333 314.279 32.35C313.229 31.75 312.404 30.9083 311.804 29.825C311.22 28.7417 310.929 27.4917 310.929 26.075C310.929 24.6417 311.22 23.3833 311.804 22.3C312.387 21.2167 313.204 20.3833 314.254 19.8C315.304 19.2167 316.512 18.925 317.879 18.925C319.195 18.925 320.37 19.2083 321.404 19.775C322.454 20.3417 323.262 21.15 323.829 22.2C324.412 23.2333 324.704 24.425 324.704 25.775ZM321.079 24.775C321.062 23.875 320.737 23.1583 320.104 22.625C319.47 22.075 318.695 21.8 317.779 21.8C316.912 21.8 316.179 22.0667 315.579 22.6C314.995 23.1167 314.637 23.8417 314.504 24.775H321.079Z" fill="#C81243"/>
<path d="M38.5 5.5H9.5C7.29086 5.5 5.5 7.29086 5.5 9.5V38.5C5.5 40.7091 7.29086 42.5 9.5 42.5H38.5C40.7091 42.5 42.5 40.7091 42.5 38.5V9.5C42.5 7.29086 40.7091 5.5 38.5 5.5Z" stroke="#C81243" stroke-width="2" stroke-linecap="round" stroke-linejoin="round"/>
<path d="M32.75 19.5C31.6228 19.5 30.5418 19.0522 29.7448 18.2552C28.9478 17.4582 28.5 16.3772 28.5 15.25C28.5 14.1228 28.0522 13.0418 27.2552 12.2448C26.4582 11.4478 25.3772 11 24.25 11H23.75C22.6228 11 21.5418 11.4478 20.7448 12.2448C19.9478 13.0418 19.5 14.1228 19.5 15.25C19.5 16.3772 19.0522 17.4582 18.2552 18.2552C17.4582 19.0522 16.3772 19.5 15.25 19.5C14.1228 19.5 13.0418 19.9478 12.2448 20.7448C11.4478 21.5418 11 22.6228 11 23.75V24.25C11 25.3772 11.4478 26.4582 12.2448 27.2552C13.0418 28.0522 14.1228 28.5 15.25 28.5C16.3772 28.5 17.4582 28.9478 18.2552 29.7448C19.0522 30.5418 19.5 31.6228 19.5 32.75C19.5 33.8772 19.9478 34.9582 20.7448 35.7552C21.5418 36.5522 22.6228 37 23.75 37H24.25C25.3772 37 26.4582 36.5522 27.2552 35.7552C28.0522 34.9582 28.5 33.8772 28.5 32.75C28.5 31.6228 28.9478 30.5418 29.7448 29.7448C30.5418 28.9478 31.6228 28.5 32.75 28.5C33.8772 28.5 34.9582 28.0522 35.7552 27.2552C36.5522 26.4582 37 25.3772 37 24.25V23.75C37 22.6228 36.5522 21.5418 35.7552 20.7448C34.9582 19.9478 33.8772 19.5 32.75 19.5Z" stroke="#C81243" stroke-width="2" stroke-linecap="round" stroke-linejoin="round"/>
<path d="M33.3701 27.005C32.5732 26.208 32.1255 25.1271 32.1255 24C32.1255 22.8729 32.5732 21.792 33.3701 20.995C34.167 20.198 34.6147 19.1171 34.6147 17.99C34.6147 16.8629 34.167 15.782 33.3701 14.985L33.0161 14.631C32.2191 13.8341 31.1381 13.3864 30.0111 13.3864C28.884 13.3864 27.8031 13.8341 27.0061 14.631C26.6114 15.0257 26.1429 15.3389 25.6272 15.5525C25.1115 15.7661 24.5588 15.8761 24.0006 15.8761C23.4424 15.8761 22.8897 15.7661 22.374 15.5525C21.8583 15.3389 21.3897 15.0257 20.9951 14.631C20.1981 13.8341 19.1171 13.3864 17.9901 13.3864C16.863 13.3864 15.7821 13.8341 14.9851 14.631L14.6311 14.984C13.8342 15.781 13.3865 16.8619 13.3865 17.989C13.3865 19.1161 13.8342 20.197 14.6311 20.994C15.0258 21.3887 15.3389 21.8572 15.5526 22.3729C15.7662 22.8886 15.8762 23.4413 15.8762 23.9995C15.8762 24.5577 15.7662 25.1104 15.5526 25.6261C15.3389 26.1418 15.0258 26.6103 14.6311 27.005C13.8342 27.802 13.3865 28.8829 13.3865 30.01C13.3865 31.1371 13.8342 32.218 14.6311 33.015L14.9841 33.369C15.7811 34.1659 16.862 34.6136 17.9891 34.6136C19.1161 34.6136 20.1971 34.1659 20.9941 33.369C21.3887 32.9743 21.8573 32.6611 22.373 32.4475C22.8887 32.2339 23.4414 32.1239 23.9996 32.1239C24.5578 32.1239 25.1105 32.2339 25.6262 32.4475C26.1419 32.6611 26.6104 32.9743 27.0051 33.369C27.8021 34.1659 28.883 34.6136 30.0101 34.6136C31.1371 34.6136 32.2181 34.1659 33.0151 33.369L33.3691 33.016C34.166 32.219 34.6137 31.1381 34.6137 30.011C34.6137 28.8839 34.166 27.803 33.3691 27.006" stroke="#C81243" stroke-width="2" stroke-linecap="round" stroke-linejoin="round"/>
</svg>
