<svg width="100" height="100" viewBox="0 0 100 100" fill="none" xmlns="http://www.w3.org/2000/svg">
<path d="M50.0311 62.6604C54.0862 62.6604 57.552 61.2117 60.4286 58.3143C63.3053 55.417 64.7436 51.9407 64.7436 47.8856C64.7436 43.8305 63.2949 40.3647 60.3976 37.4881C57.5002 34.6114 54.0239 33.1731 49.9688 33.1731C45.9137 33.1731 42.4479 34.6217 39.5712 37.5191C36.6946 40.4165 35.2563 43.8927 35.2563 47.9479C35.2563 52.0029 36.705 55.4688 39.6024 58.3454C42.4997 61.222 45.976 62.6604 50.0311 62.6604ZM49.9613 59.343C46.7766 59.343 44.0825 58.2283 41.8789 55.9991C39.6754 53.7698 38.5737 51.0628 38.5737 47.8781C38.5737 44.6933 39.6883 41.9992 41.9176 39.7957C44.1469 37.5922 46.8539 36.4905 50.0386 36.4905C53.2233 36.4905 55.9175 37.6051 58.121 39.8343C60.3245 42.0636 61.4262 44.7706 61.4262 47.9554C61.4262 51.1401 60.3116 53.8342 58.0824 56.0377C55.853 58.2412 53.146 59.343 49.9613 59.343ZM50.0114 75C41.0401 75 32.8578 72.5321 25.4646 67.5962C18.0715 62.6603 12.4679 56.1005 8.65381 47.9167C12.4679 39.733 18.0677 33.1731 25.4531 28.2372C32.8387 23.3013 41.0172 20.8334 49.9885 20.8334C58.9598 20.8334 67.1421 23.3013 74.5353 28.2372C81.9284 33.1731 87.532 39.733 91.3461 47.9167C87.532 56.1005 81.9322 62.6603 74.5467 67.5962C67.1612 72.5321 58.9827 75 50.0114 75ZM49.9824 71.7949C58.1298 71.7949 65.5943 69.6408 72.3758 65.3325C79.1573 61.0243 84.3349 55.2191 87.9086 47.9167C84.3349 40.6143 79.1632 34.8091 72.3933 30.5009C65.6235 26.1926 58.1649 24.0385 50.0176 24.0385C41.8701 24.0385 34.4056 26.1926 27.6241 30.5009C20.8426 34.8091 15.657 40.6143 12.0672 47.9167C15.657 55.2191 20.8368 61.0243 27.6066 65.3325C34.3764 69.6408 41.835 71.7949 49.9824 71.7949Z" fill="white"/>
</svg>
